<mxfile host="app.diagrams.net" modified="2022-03-07T11:12:47.036Z" agent="5.0 (Windows NT 10.0; Win64; x64) AppleWebKit/537.36 (KHTML, like Gecko) Chrome/99.0.4844.51 Safari/537.36" etag="qP9Sw4HD5jWzCFRd5N2R" version="16.6.5" type="github">
  <diagram id="V-NycakTMJc-n4oT-As1" name="Page-1">
    <mxGraphModel dx="2062" dy="1122" grid="0" gridSize="10" guides="1" tooltips="1" connect="1" arrows="1" fold="1" page="1" pageScale="1" pageWidth="1200" pageHeight="1600" background="#ffffff" math="0" shadow="0">
      <root>
        <mxCell id="0" />
        <mxCell id="1" parent="0" />
        <mxCell id="exTdn07_ICYGT6VPbYw_-382" value="" style="rounded=0;whiteSpace=wrap;html=1;fontSize=13;strokeColor=#000000;strokeWidth=1;dashed=1;" parent="1" vertex="1">
          <mxGeometry x="44" y="2112" width="679.5" height="222" as="geometry" />
        </mxCell>
        <mxCell id="pVm0WlRurmtJOsec4c7N-6" value="" style="rounded=0;whiteSpace=wrap;html=1;" parent="1" vertex="1">
          <mxGeometry x="90" y="410" width="100" height="80" as="geometry" />
        </mxCell>
        <mxCell id="pVm0WlRurmtJOsec4c7N-7" value="" style="rounded=0;whiteSpace=wrap;html=1;" parent="1" vertex="1">
          <mxGeometry x="90" y="240" width="100" height="80" as="geometry" />
        </mxCell>
        <mxCell id="pVm0WlRurmtJOsec4c7N-8" value="" style="rounded=0;whiteSpace=wrap;html=1;" parent="1" vertex="1">
          <mxGeometry x="90" y="610" width="100" height="80" as="geometry" />
        </mxCell>
        <mxCell id="pVm0WlRurmtJOsec4c7N-9" value="" style="endArrow=none;html=1;rounded=0;entryX=0.5;entryY=0;entryDx=0;entryDy=0;exitX=0.5;exitY=1;exitDx=0;exitDy=0;" parent="1" source="pVm0WlRurmtJOsec4c7N-8" target="pVm0WlRurmtJOsec4c7N-8" edge="1">
          <mxGeometry width="50" height="50" relative="1" as="geometry">
            <mxPoint x="120" y="685" as="sourcePoint" />
            <mxPoint x="170" y="635" as="targetPoint" />
          </mxGeometry>
        </mxCell>
        <mxCell id="pVm0WlRurmtJOsec4c7N-10" value="" style="endArrow=none;html=1;rounded=0;entryX=1;entryY=0.5;entryDx=0;entryDy=0;entryPerimeter=0;exitX=0;exitY=0.5;exitDx=0;exitDy=0;" parent="1" source="pVm0WlRurmtJOsec4c7N-8" target="pVm0WlRurmtJOsec4c7N-8" edge="1">
          <mxGeometry width="50" height="50" relative="1" as="geometry">
            <mxPoint x="115" y="690" as="sourcePoint" />
            <mxPoint x="165" y="640" as="targetPoint" />
          </mxGeometry>
        </mxCell>
        <mxCell id="pVm0WlRurmtJOsec4c7N-12" value="" style="endArrow=none;html=1;rounded=0;entryX=0.5;entryY=0;entryDx=0;entryDy=0;exitX=0.5;exitY=1;exitDx=0;exitDy=0;" parent="1" edge="1">
          <mxGeometry width="50" height="50" relative="1" as="geometry">
            <mxPoint x="139.5" y="490" as="sourcePoint" />
            <mxPoint x="139.5" y="410" as="targetPoint" />
          </mxGeometry>
        </mxCell>
        <mxCell id="pVm0WlRurmtJOsec4c7N-13" value="&lt;font style=&quot;font-size: 13px&quot;&gt;C&lt;br&gt;O&lt;br&gt;N&lt;br&gt;V&lt;br&gt;&lt;/font&gt;" style="rounded=0;whiteSpace=wrap;html=1;direction=east;fillColor=#ffe6cc;strokeColor=#d79b00;labelPosition=center;verticalLabelPosition=middle;align=center;verticalAlign=top;spacing=0;" parent="1" vertex="1">
          <mxGeometry x="230" y="247.5" width="20" height="65" as="geometry" />
        </mxCell>
        <mxCell id="pVm0WlRurmtJOsec4c7N-15" value="&lt;font style=&quot;font-size: 14px&quot;&gt;SAM&lt;/font&gt;" style="rounded=0;whiteSpace=wrap;html=1;fontSize=18;fillColor=#d5e8d4;strokeColor=#82b366;" parent="1" vertex="1">
          <mxGeometry x="550" y="635" width="60" height="30" as="geometry" />
        </mxCell>
        <mxCell id="pVm0WlRurmtJOsec4c7N-16" value="c" style="ellipse;whiteSpace=wrap;html=1;aspect=fixed;fontSize=18;" parent="1" vertex="1">
          <mxGeometry x="404" y="440" width="20" height="20" as="geometry" />
        </mxCell>
        <mxCell id="pVm0WlRurmtJOsec4c7N-17" value="" style="ellipse;whiteSpace=wrap;html=1;aspect=fixed;fontSize=18;" parent="1" vertex="1">
          <mxGeometry x="800" y="268.13" width="18.75" height="18.75" as="geometry" />
        </mxCell>
        <mxCell id="pVm0WlRurmtJOsec4c7N-20" value="" style="shape=cube;whiteSpace=wrap;html=1;boundedLbl=1;backgroundOutline=1;darkOpacity=0.05;darkOpacity2=0.1;fontSize=18;fillColor=#dae8fc;strokeColor=#6c8ebf;" parent="1" vertex="1">
          <mxGeometry x="310" y="600" width="30" height="100" as="geometry" />
        </mxCell>
        <mxCell id="exTdn07_ICYGT6VPbYw_-51" value="" style="edgeStyle=orthogonalEdgeStyle;rounded=0;orthogonalLoop=1;jettySize=auto;html=1;" parent="1" source="pVm0WlRurmtJOsec4c7N-21" target="pVm0WlRurmtJOsec4c7N-26" edge="1">
          <mxGeometry relative="1" as="geometry">
            <Array as="points">
              <mxPoint x="400" y="673" />
              <mxPoint x="400" y="673" />
            </Array>
          </mxGeometry>
        </mxCell>
        <mxCell id="pVm0WlRurmtJOsec4c7N-21" value="" style="shape=cube;whiteSpace=wrap;html=1;boundedLbl=1;backgroundOutline=1;darkOpacity=0.05;darkOpacity2=0.1;fontSize=18;fillColor=#dae8fc;strokeColor=#6c8ebf;" parent="1" vertex="1">
          <mxGeometry x="340" y="625" width="30" height="75" as="geometry" />
        </mxCell>
        <mxCell id="pVm0WlRurmtJOsec4c7N-27" value="" style="edgeStyle=orthogonalEdgeStyle;rounded=0;orthogonalLoop=1;jettySize=auto;html=1;fontSize=18;fillColor=#dae8fc;strokeColor=#6c8ebf;" parent="1" source="pVm0WlRurmtJOsec4c7N-22" target="pVm0WlRurmtJOsec4c7N-26" edge="1">
          <mxGeometry relative="1" as="geometry" />
        </mxCell>
        <mxCell id="pVm0WlRurmtJOsec4c7N-22" value="" style="shape=cube;whiteSpace=wrap;html=1;boundedLbl=1;backgroundOutline=1;darkOpacity=0.05;darkOpacity2=0.1;fontSize=18;fillColor=#dae8fc;strokeColor=#6c8ebf;" parent="1" vertex="1">
          <mxGeometry x="370" y="645" width="30" height="55" as="geometry" />
        </mxCell>
        <mxCell id="pVm0WlRurmtJOsec4c7N-24" value="" style="shape=cube;whiteSpace=wrap;html=1;boundedLbl=1;backgroundOutline=1;darkOpacity=0.05;darkOpacity2=0.1;fontSize=18;fillColor=#dae8fc;strokeColor=#6c8ebf;" parent="1" vertex="1">
          <mxGeometry x="480" y="605" width="30" height="95" as="geometry" />
        </mxCell>
        <mxCell id="pVm0WlRurmtJOsec4c7N-25" value="" style="shape=cube;whiteSpace=wrap;html=1;boundedLbl=1;backgroundOutline=1;darkOpacity=0.05;darkOpacity2=0.1;fontSize=18;fillColor=#dae8fc;strokeColor=#6c8ebf;" parent="1" vertex="1">
          <mxGeometry x="450" y="625" width="30" height="75" as="geometry" />
        </mxCell>
        <mxCell id="pVm0WlRurmtJOsec4c7N-26" value="" style="shape=cube;whiteSpace=wrap;html=1;boundedLbl=1;backgroundOutline=1;darkOpacity=0.05;darkOpacity2=0.1;fontSize=18;fillColor=#dae8fc;strokeColor=#6c8ebf;" parent="1" vertex="1">
          <mxGeometry x="420" y="645" width="30" height="55" as="geometry" />
        </mxCell>
        <mxCell id="pVm0WlRurmtJOsec4c7N-42" value="" style="rounded=0;whiteSpace=wrap;html=1;" parent="1" vertex="1">
          <mxGeometry x="630" y="610" width="100" height="80" as="geometry" />
        </mxCell>
        <mxCell id="pVm0WlRurmtJOsec4c7N-43" value="" style="endArrow=none;html=1;rounded=0;exitX=0.5;exitY=1;exitDx=0;exitDy=0;" parent="1" edge="1">
          <mxGeometry width="50" height="50" relative="1" as="geometry">
            <mxPoint x="679.5" y="690" as="sourcePoint" />
            <mxPoint x="680" y="610" as="targetPoint" />
          </mxGeometry>
        </mxCell>
        <mxCell id="pVm0WlRurmtJOsec4c7N-44" value="" style="rounded=0;whiteSpace=wrap;html=1;" parent="1" vertex="1">
          <mxGeometry x="780" y="410" width="100" height="80" as="geometry" />
        </mxCell>
        <mxCell id="pVm0WlRurmtJOsec4c7N-45" value="" style="rounded=0;whiteSpace=wrap;html=1;" parent="1" vertex="1">
          <mxGeometry x="860" y="240" width="100" height="80" as="geometry" />
        </mxCell>
        <mxCell id="pVm0WlRurmtJOsec4c7N-47" value="&lt;font style=&quot;font-size: 13px&quot;&gt;C&lt;br&gt;A&lt;br&gt;M&lt;br&gt;&lt;/font&gt;" style="rounded=0;whiteSpace=wrap;html=1;direction=east;fillColor=#60a917;strokeColor=#2D7600;labelPosition=center;verticalLabelPosition=middle;align=center;verticalAlign=top;fontColor=#ffffff;spacing=3;" parent="1" vertex="1">
          <mxGeometry x="250" y="247.5" width="20" height="65" as="geometry" />
        </mxCell>
        <mxCell id="pVm0WlRurmtJOsec4c7N-48" value="&lt;font style=&quot;font-size: 13px&quot;&gt;C&lt;br&gt;O&lt;br&gt;N&lt;br&gt;V&lt;br&gt;&lt;/font&gt;" style="rounded=0;whiteSpace=wrap;html=1;direction=east;fillColor=#ffe6cc;strokeColor=#d79b00;labelPosition=center;verticalLabelPosition=middle;align=center;verticalAlign=top;spacing=0;" parent="1" vertex="1">
          <mxGeometry x="270" y="247.5" width="20" height="65" as="geometry" />
        </mxCell>
        <mxCell id="pVm0WlRurmtJOsec4c7N-49" value="&lt;font style=&quot;font-size: 13px;&quot;&gt;C&lt;br style=&quot;font-size: 13px;&quot;&gt;O&lt;br style=&quot;font-size: 13px;&quot;&gt;N&lt;br style=&quot;font-size: 13px;&quot;&gt;V&lt;br style=&quot;font-size: 13px;&quot;&gt;&lt;/font&gt;" style="rounded=0;whiteSpace=wrap;html=1;direction=east;fillColor=#ffe6cc;strokeColor=#d79b00;labelPosition=center;verticalLabelPosition=middle;align=center;verticalAlign=top;fontSize=13;spacing=0;" parent="1" vertex="1">
          <mxGeometry x="230" y="417.5" width="20" height="65" as="geometry" />
        </mxCell>
        <mxCell id="pVm0WlRurmtJOsec4c7N-50" value="&lt;font style=&quot;font-size: 13px&quot;&gt;C&lt;br style=&quot;font-size: 13px&quot;&gt;A&lt;br style=&quot;font-size: 13px&quot;&gt;M&lt;br style=&quot;font-size: 13px&quot;&gt;&lt;/font&gt;" style="rounded=0;whiteSpace=wrap;html=1;direction=east;fillColor=#60a917;strokeColor=#2D7600;labelPosition=center;verticalLabelPosition=middle;align=center;verticalAlign=top;fontColor=#ffffff;fontSize=13;spacing=3;" parent="1" vertex="1">
          <mxGeometry x="250" y="417.5" width="20" height="65" as="geometry" />
        </mxCell>
        <mxCell id="exTdn07_ICYGT6VPbYw_-47" value="" style="edgeStyle=orthogonalEdgeStyle;rounded=0;orthogonalLoop=1;jettySize=auto;html=1;" parent="1" source="pVm0WlRurmtJOsec4c7N-51" target="pVm0WlRurmtJOsec4c7N-16" edge="1">
          <mxGeometry relative="1" as="geometry" />
        </mxCell>
        <mxCell id="pVm0WlRurmtJOsec4c7N-51" value="&lt;font style=&quot;font-size: 13px;&quot;&gt;C&lt;br style=&quot;font-size: 13px;&quot;&gt;O&lt;br style=&quot;font-size: 13px;&quot;&gt;N&lt;br style=&quot;font-size: 13px;&quot;&gt;V&lt;br style=&quot;font-size: 13px;&quot;&gt;&lt;/font&gt;" style="rounded=0;whiteSpace=wrap;html=1;direction=east;fillColor=#ffe6cc;strokeColor=#d79b00;labelPosition=center;verticalLabelPosition=middle;align=center;verticalAlign=top;fontSize=13;spacing=0;spacingBottom=0;spacingTop=0;" parent="1" vertex="1">
          <mxGeometry x="270" y="417.5" width="20" height="65" as="geometry" />
        </mxCell>
        <mxCell id="pVm0WlRurmtJOsec4c7N-55" value="&lt;font style=&quot;font-size: 13px;&quot;&gt;C&lt;br style=&quot;font-size: 13px;&quot;&gt;O&lt;br style=&quot;font-size: 13px;&quot;&gt;N&lt;br style=&quot;font-size: 13px;&quot;&gt;V&lt;br style=&quot;font-size: 13px;&quot;&gt;&lt;/font&gt;" style="rounded=0;whiteSpace=wrap;html=1;direction=east;fillColor=#ffe6cc;strokeColor=#d79b00;labelPosition=center;verticalLabelPosition=middle;align=center;verticalAlign=top;fontSize=13;spacing=0;" parent="1" vertex="1">
          <mxGeometry x="230" y="617.5" width="20" height="65" as="geometry" />
        </mxCell>
        <mxCell id="pVm0WlRurmtJOsec4c7N-56" value="&lt;font style=&quot;font-size: 13px&quot;&gt;C&lt;br style=&quot;font-size: 13px&quot;&gt;A&lt;br style=&quot;font-size: 13px&quot;&gt;M&lt;br&gt;&lt;br style=&quot;font-size: 13px&quot;&gt;&lt;/font&gt;" style="rounded=0;whiteSpace=wrap;html=1;direction=east;fillColor=#60a917;strokeColor=#2D7600;labelPosition=center;verticalLabelPosition=middle;align=center;verticalAlign=top;fontColor=#ffffff;fontSize=13;spacing=3;" parent="1" vertex="1">
          <mxGeometry x="250" y="617.5" width="20" height="65" as="geometry" />
        </mxCell>
        <mxCell id="exTdn07_ICYGT6VPbYw_-1" value="" style="edgeStyle=orthogonalEdgeStyle;rounded=0;orthogonalLoop=1;jettySize=auto;html=1;" parent="1" source="pVm0WlRurmtJOsec4c7N-57" edge="1">
          <mxGeometry relative="1" as="geometry">
            <mxPoint x="310" y="650" as="targetPoint" />
          </mxGeometry>
        </mxCell>
        <mxCell id="pVm0WlRurmtJOsec4c7N-57" value="&lt;font style=&quot;font-size: 13px;&quot;&gt;C&lt;br style=&quot;font-size: 13px;&quot;&gt;O&lt;br style=&quot;font-size: 13px;&quot;&gt;N&lt;br style=&quot;font-size: 13px;&quot;&gt;V&lt;br style=&quot;font-size: 13px;&quot;&gt;&lt;/font&gt;" style="rounded=0;whiteSpace=wrap;html=1;direction=east;fillColor=#ffe6cc;strokeColor=#d79b00;labelPosition=center;verticalLabelPosition=middle;align=center;verticalAlign=top;fontSize=13;spacing=0;" parent="1" vertex="1">
          <mxGeometry x="270" y="617.5" width="20" height="65" as="geometry" />
        </mxCell>
        <mxCell id="pVm0WlRurmtJOsec4c7N-58" value="" style="endArrow=classic;html=1;rounded=0;fontSize=12;exitX=1;exitY=0.5;exitDx=0;exitDy=0;entryX=0;entryY=0.5;entryDx=0;entryDy=0;" parent="1" source="pVm0WlRurmtJOsec4c7N-8" target="pVm0WlRurmtJOsec4c7N-55" edge="1">
          <mxGeometry width="50" height="50" relative="1" as="geometry">
            <mxPoint x="390" y="565" as="sourcePoint" />
            <mxPoint x="440" y="515" as="targetPoint" />
          </mxGeometry>
        </mxCell>
        <mxCell id="pVm0WlRurmtJOsec4c7N-59" value="" style="endArrow=classic;html=1;rounded=0;fontSize=12;entryX=0;entryY=0.5;entryDx=0;entryDy=0;exitX=1;exitY=0.5;exitDx=0;exitDy=0;" parent="1" source="pVm0WlRurmtJOsec4c7N-7" target="pVm0WlRurmtJOsec4c7N-13" edge="1">
          <mxGeometry width="50" height="50" relative="1" as="geometry">
            <mxPoint x="220" y="390" as="sourcePoint" />
            <mxPoint x="270" y="340" as="targetPoint" />
          </mxGeometry>
        </mxCell>
        <mxCell id="pVm0WlRurmtJOsec4c7N-60" value="" style="endArrow=classic;html=1;rounded=0;fontSize=12;entryX=0;entryY=0.5;entryDx=0;entryDy=0;exitX=1;exitY=0.5;exitDx=0;exitDy=0;" parent="1" source="pVm0WlRurmtJOsec4c7N-6" target="pVm0WlRurmtJOsec4c7N-49" edge="1">
          <mxGeometry width="50" height="50" relative="1" as="geometry">
            <mxPoint x="200" y="290" as="sourcePoint" />
            <mxPoint x="240" y="290" as="targetPoint" />
          </mxGeometry>
        </mxCell>
        <mxCell id="exTdn07_ICYGT6VPbYw_-22" value="" style="html=1;verticalAlign=bottom;endArrow=block;rounded=0;" parent="1" edge="1">
          <mxGeometry width="80" relative="1" as="geometry">
            <mxPoint x="510" y="649.5" as="sourcePoint" />
            <mxPoint x="550" y="650" as="targetPoint" />
          </mxGeometry>
        </mxCell>
        <mxCell id="exTdn07_ICYGT6VPbYw_-23" value="" style="html=1;verticalAlign=bottom;endArrow=block;rounded=0;" parent="1" edge="1">
          <mxGeometry width="80" relative="1" as="geometry">
            <mxPoint x="610" y="649.5" as="sourcePoint" />
            <mxPoint x="630" y="650" as="targetPoint" />
          </mxGeometry>
        </mxCell>
        <mxCell id="exTdn07_ICYGT6VPbYw_-25" value="" style="shape=partialRectangle;whiteSpace=wrap;html=1;bottom=0;right=0;fillColor=none;direction=north;" parent="1" vertex="1">
          <mxGeometry x="210" y="650" width="370" height="90" as="geometry" />
        </mxCell>
        <mxCell id="exTdn07_ICYGT6VPbYw_-42" value="" style="html=1;verticalAlign=bottom;endArrow=block;rounded=0;entryX=0;entryY=0.5;entryDx=0;entryDy=0;" parent="1" target="exTdn07_ICYGT6VPbYw_-48" edge="1">
          <mxGeometry width="80" relative="1" as="geometry">
            <mxPoint x="680" y="449.5" as="sourcePoint" />
            <mxPoint x="750" y="450" as="targetPoint" />
          </mxGeometry>
        </mxCell>
        <mxCell id="exTdn07_ICYGT6VPbYw_-80" value="" style="edgeStyle=orthogonalEdgeStyle;rounded=0;orthogonalLoop=1;jettySize=auto;html=1;strokeColor=#000000;" parent="1" source="exTdn07_ICYGT6VPbYw_-48" target="pVm0WlRurmtJOsec4c7N-44" edge="1">
          <mxGeometry relative="1" as="geometry" />
        </mxCell>
        <mxCell id="exTdn07_ICYGT6VPbYw_-48" value="&lt;font style=&quot;font-size: 14px&quot;&gt;SAM&lt;/font&gt;" style="rounded=0;whiteSpace=wrap;html=1;fontSize=18;fillColor=#d5e8d4;strokeColor=#82b366;" parent="1" vertex="1">
          <mxGeometry x="700" y="435" width="60" height="30" as="geometry" />
        </mxCell>
        <mxCell id="exTdn07_ICYGT6VPbYw_-53" value="" style="shape=partialRectangle;whiteSpace=wrap;html=1;bottom=0;right=0;fillColor=none;direction=north;strokeColor=#0066CC;" parent="1" vertex="1">
          <mxGeometry x="330" y="700" width="170" height="30" as="geometry" />
        </mxCell>
        <mxCell id="exTdn07_ICYGT6VPbYw_-54" value="" style="endArrow=classic;html=1;rounded=0;strokeColor=#0066CC;" parent="1" edge="1">
          <mxGeometry relative="1" as="geometry">
            <mxPoint x="500" y="730" as="sourcePoint" />
            <mxPoint x="500" y="700" as="targetPoint" />
          </mxGeometry>
        </mxCell>
        <mxCell id="exTdn07_ICYGT6VPbYw_-57" style="edgeStyle=orthogonalEdgeStyle;rounded=0;orthogonalLoop=1;jettySize=auto;html=1;exitX=0;exitY=0.5;exitDx=0;exitDy=0;" parent="1" source="exTdn07_ICYGT6VPbYw_-53" target="exTdn07_ICYGT6VPbYw_-53" edge="1">
          <mxGeometry relative="1" as="geometry" />
        </mxCell>
        <mxCell id="exTdn07_ICYGT6VPbYw_-60" value="" style="shape=partialRectangle;whiteSpace=wrap;html=1;bottom=0;right=0;direction=north;strokeColor=#0066CC;" parent="1" vertex="1">
          <mxGeometry x="360" y="700" width="110" height="20" as="geometry" />
        </mxCell>
        <mxCell id="exTdn07_ICYGT6VPbYw_-61" value="" style="endArrow=classic;html=1;rounded=0;strokeColor=#0066CC;" parent="1" edge="1">
          <mxGeometry relative="1" as="geometry">
            <mxPoint x="470" y="720" as="sourcePoint" />
            <mxPoint x="470" y="695" as="targetPoint" />
          </mxGeometry>
        </mxCell>
        <mxCell id="exTdn07_ICYGT6VPbYw_-62" value="" style="shape=cube;whiteSpace=wrap;html=1;boundedLbl=1;backgroundOutline=1;darkOpacity=0.05;darkOpacity2=0.1;fontSize=18;fillColor=#dae8fc;strokeColor=#6c8ebf;" parent="1" vertex="1">
          <mxGeometry x="480" y="384.5" width="30" height="100" as="geometry" />
        </mxCell>
        <mxCell id="exTdn07_ICYGT6VPbYw_-63" value="" style="edgeStyle=orthogonalEdgeStyle;rounded=0;orthogonalLoop=1;jettySize=auto;html=1;" parent="1" source="exTdn07_ICYGT6VPbYw_-64" target="exTdn07_ICYGT6VPbYw_-69" edge="1">
          <mxGeometry relative="1" as="geometry">
            <Array as="points">
              <mxPoint x="570" y="457.5" />
              <mxPoint x="570" y="457.5" />
            </Array>
          </mxGeometry>
        </mxCell>
        <mxCell id="exTdn07_ICYGT6VPbYw_-64" value="" style="shape=cube;whiteSpace=wrap;html=1;boundedLbl=1;backgroundOutline=1;darkOpacity=0.05;darkOpacity2=0.1;fontSize=18;fillColor=#dae8fc;strokeColor=#6c8ebf;" parent="1" vertex="1">
          <mxGeometry x="510" y="409.5" width="30" height="75" as="geometry" />
        </mxCell>
        <mxCell id="exTdn07_ICYGT6VPbYw_-65" value="" style="edgeStyle=orthogonalEdgeStyle;rounded=0;orthogonalLoop=1;jettySize=auto;html=1;fontSize=18;fillColor=#dae8fc;strokeColor=#6c8ebf;" parent="1" source="exTdn07_ICYGT6VPbYw_-66" target="exTdn07_ICYGT6VPbYw_-69" edge="1">
          <mxGeometry relative="1" as="geometry" />
        </mxCell>
        <mxCell id="exTdn07_ICYGT6VPbYw_-66" value="" style="shape=cube;whiteSpace=wrap;html=1;boundedLbl=1;backgroundOutline=1;darkOpacity=0.05;darkOpacity2=0.1;fontSize=18;fillColor=#dae8fc;strokeColor=#6c8ebf;" parent="1" vertex="1">
          <mxGeometry x="540" y="429.5" width="30" height="55" as="geometry" />
        </mxCell>
        <mxCell id="exTdn07_ICYGT6VPbYw_-67" value="" style="shape=cube;whiteSpace=wrap;html=1;boundedLbl=1;backgroundOutline=1;darkOpacity=0.05;darkOpacity2=0.1;fontSize=18;fillColor=#dae8fc;strokeColor=#6c8ebf;" parent="1" vertex="1">
          <mxGeometry x="650" y="389.5" width="30" height="95" as="geometry" />
        </mxCell>
        <mxCell id="exTdn07_ICYGT6VPbYw_-68" value="" style="shape=cube;whiteSpace=wrap;html=1;boundedLbl=1;backgroundOutline=1;darkOpacity=0.05;darkOpacity2=0.1;fontSize=18;fillColor=#dae8fc;strokeColor=#6c8ebf;" parent="1" vertex="1">
          <mxGeometry x="620" y="409.5" width="30" height="75" as="geometry" />
        </mxCell>
        <mxCell id="exTdn07_ICYGT6VPbYw_-69" value="" style="shape=cube;whiteSpace=wrap;html=1;boundedLbl=1;backgroundOutline=1;darkOpacity=0.05;darkOpacity2=0.1;fontSize=18;fillColor=#dae8fc;strokeColor=#6c8ebf;" parent="1" vertex="1">
          <mxGeometry x="590" y="429.5" width="30" height="55" as="geometry" />
        </mxCell>
        <mxCell id="exTdn07_ICYGT6VPbYw_-70" value="" style="shape=partialRectangle;whiteSpace=wrap;html=1;bottom=0;right=0;fillColor=none;direction=north;strokeColor=#0066CC;" parent="1" vertex="1">
          <mxGeometry x="500" y="484.5" width="170" height="30" as="geometry" />
        </mxCell>
        <mxCell id="exTdn07_ICYGT6VPbYw_-71" value="" style="endArrow=classic;html=1;rounded=0;strokeColor=#0066CC;" parent="1" edge="1">
          <mxGeometry relative="1" as="geometry">
            <mxPoint x="670" y="514.5" as="sourcePoint" />
            <mxPoint x="670" y="484.5" as="targetPoint" />
          </mxGeometry>
        </mxCell>
        <mxCell id="exTdn07_ICYGT6VPbYw_-72" style="edgeStyle=orthogonalEdgeStyle;rounded=0;orthogonalLoop=1;jettySize=auto;html=1;exitX=0;exitY=0.5;exitDx=0;exitDy=0;" parent="1" source="exTdn07_ICYGT6VPbYw_-70" target="exTdn07_ICYGT6VPbYw_-70" edge="1">
          <mxGeometry relative="1" as="geometry" />
        </mxCell>
        <mxCell id="exTdn07_ICYGT6VPbYw_-73" value="" style="shape=partialRectangle;whiteSpace=wrap;html=1;bottom=0;right=0;direction=north;strokeColor=#0066CC;" parent="1" vertex="1">
          <mxGeometry x="530" y="484.5" width="110" height="20" as="geometry" />
        </mxCell>
        <mxCell id="exTdn07_ICYGT6VPbYw_-74" value="" style="endArrow=classic;html=1;rounded=0;strokeColor=#0066CC;" parent="1" edge="1">
          <mxGeometry relative="1" as="geometry">
            <mxPoint x="640" y="504.5" as="sourcePoint" />
            <mxPoint x="640" y="479.5" as="targetPoint" />
          </mxGeometry>
        </mxCell>
        <mxCell id="exTdn07_ICYGT6VPbYw_-78" value="" style="html=1;verticalAlign=bottom;endArrow=block;rounded=0;exitX=1;exitY=0.5;exitDx=0;exitDy=0;" parent="1" source="pVm0WlRurmtJOsec4c7N-16" edge="1">
          <mxGeometry width="80" relative="1" as="geometry">
            <mxPoint x="430" y="450" as="sourcePoint" />
            <mxPoint x="480" y="450" as="targetPoint" />
          </mxGeometry>
        </mxCell>
        <mxCell id="exTdn07_ICYGT6VPbYw_-81" value="" style="edgeStyle=orthogonalEdgeStyle;rounded=0;orthogonalLoop=1;jettySize=auto;html=1;" parent="1" edge="1">
          <mxGeometry relative="1" as="geometry">
            <mxPoint x="580" y="740" as="sourcePoint" />
            <mxPoint x="580" y="660" as="targetPoint" />
          </mxGeometry>
        </mxCell>
        <mxCell id="exTdn07_ICYGT6VPbYw_-82" value="" style="shape=partialRectangle;whiteSpace=wrap;html=1;bottom=0;right=0;fillColor=none;direction=north;" parent="1" vertex="1">
          <mxGeometry x="210" y="450" width="520" height="80" as="geometry" />
        </mxCell>
        <mxCell id="exTdn07_ICYGT6VPbYw_-83" value="" style="edgeStyle=orthogonalEdgeStyle;rounded=0;orthogonalLoop=1;jettySize=auto;html=1;" parent="1" edge="1">
          <mxGeometry relative="1" as="geometry">
            <mxPoint x="730" y="530" as="sourcePoint" />
            <mxPoint x="730" y="462.25" as="targetPoint" />
          </mxGeometry>
        </mxCell>
        <mxCell id="exTdn07_ICYGT6VPbYw_-84" value="" style="edgeStyle=orthogonalEdgeStyle;rounded=0;orthogonalLoop=1;jettySize=auto;html=1;exitX=0;exitY=0;exitDx=20;exitDy=10;exitPerimeter=0;fillColor=#f8cecc;gradientColor=#ea6b66;strokeColor=#B85450;" parent="1" source="pVm0WlRurmtJOsec4c7N-24" edge="1">
          <mxGeometry relative="1" as="geometry">
            <mxPoint x="500" y="584.75" as="sourcePoint" />
            <mxPoint x="500" y="517" as="targetPoint" />
          </mxGeometry>
        </mxCell>
        <mxCell id="exTdn07_ICYGT6VPbYw_-91" style="edgeStyle=orthogonalEdgeStyle;rounded=0;orthogonalLoop=1;jettySize=auto;html=1;exitX=1;exitY=0;exitDx=0;exitDy=0;strokeColor=#b85450;fillColor=#f8cecc;gradientColor=#ea6b66;" parent="1" source="exTdn07_ICYGT6VPbYw_-87" edge="1">
          <mxGeometry relative="1" as="geometry">
            <mxPoint x="500" y="590" as="targetPoint" />
          </mxGeometry>
        </mxCell>
        <mxCell id="exTdn07_ICYGT6VPbYw_-87" value="" style="shape=partialRectangle;whiteSpace=wrap;html=1;bottom=0;right=0;fillColor=none;strokeColor=#B85450;" parent="1" vertex="1">
          <mxGeometry x="325" y="590" width="155" height="20" as="geometry" />
        </mxCell>
        <mxCell id="exTdn07_ICYGT6VPbYw_-92" value="" style="edgeStyle=elbowEdgeStyle;elbow=vertical;endArrow=classic;html=1;rounded=0;strokeColor=#82b366;fillColor=#d5e8d4;gradientColor=#97d077;exitX=0.5;exitY=0;exitDx=0;exitDy=0;" parent="1" source="pVm0WlRurmtJOsec4c7N-15" edge="1">
          <mxGeometry width="50" height="50" relative="1" as="geometry">
            <mxPoint x="580" y="650" as="sourcePoint" />
            <mxPoint x="414" y="465" as="targetPoint" />
          </mxGeometry>
        </mxCell>
        <mxCell id="exTdn07_ICYGT6VPbYw_-93" value="c" style="ellipse;whiteSpace=wrap;html=1;aspect=fixed;fontSize=18;" parent="1" vertex="1">
          <mxGeometry x="500" y="270" width="20" height="20" as="geometry" />
        </mxCell>
        <mxCell id="exTdn07_ICYGT6VPbYw_-112" value="" style="edgeStyle=orthogonalEdgeStyle;rounded=0;orthogonalLoop=1;jettySize=auto;html=1;strokeColor=#000000;" parent="1" source="exTdn07_ICYGT6VPbYw_-100" target="exTdn07_ICYGT6VPbYw_-111" edge="1">
          <mxGeometry relative="1" as="geometry" />
        </mxCell>
        <mxCell id="exTdn07_ICYGT6VPbYw_-100" value="" style="rounded=0;whiteSpace=wrap;html=1;" parent="1" vertex="1">
          <mxGeometry x="570" y="247.5" width="170" height="60" as="geometry" />
        </mxCell>
        <mxCell id="exTdn07_ICYGT6VPbYw_-94" value="" style="endArrow=classic;html=1;rounded=0;fontSize=12;entryX=0;entryY=0.5;entryDx=0;entryDy=0;exitX=1;exitY=0.5;exitDx=0;exitDy=0;" parent="1" target="exTdn07_ICYGT6VPbYw_-93" edge="1">
          <mxGeometry width="50" height="50" relative="1" as="geometry">
            <mxPoint x="290" y="279.5" as="sourcePoint" />
            <mxPoint x="330" y="279.5" as="targetPoint" />
          </mxGeometry>
        </mxCell>
        <mxCell id="exTdn07_ICYGT6VPbYw_-95" value="&lt;font style=&quot;font-size: 14px&quot;&gt;ORB&lt;/font&gt;" style="rounded=0;whiteSpace=wrap;html=1;fontSize=18;fillColor=#fff2cc;strokeColor=#d6b656;" parent="1" vertex="1">
          <mxGeometry x="670" y="265" width="60" height="30" as="geometry" />
        </mxCell>
        <mxCell id="exTdn07_ICYGT6VPbYw_-96" value="" style="html=1;verticalAlign=bottom;endArrow=open;dashed=1;endSize=8;rounded=0;strokeColor=#000000;" parent="1" edge="1">
          <mxGeometry relative="1" as="geometry">
            <mxPoint x="645" y="279.5" as="sourcePoint" />
            <mxPoint x="670" y="280" as="targetPoint" />
          </mxGeometry>
        </mxCell>
        <mxCell id="exTdn07_ICYGT6VPbYw_-102" value="&lt;font style=&quot;font-size: 14px&quot;&gt;ORB&lt;/font&gt;" style="rounded=0;whiteSpace=wrap;html=1;fontSize=18;fillColor=#fff2cc;strokeColor=#d6b656;" parent="1" vertex="1">
          <mxGeometry x="580" y="265" width="60" height="30" as="geometry" />
        </mxCell>
        <mxCell id="exTdn07_ICYGT6VPbYw_-104" value="" style="endArrow=classic;html=1;rounded=0;fontSize=12;entryX=0;entryY=0.5;entryDx=0;entryDy=0;exitX=1;exitY=0.5;exitDx=0;exitDy=0;" parent="1" source="exTdn07_ICYGT6VPbYw_-93" edge="1">
          <mxGeometry width="50" height="50" relative="1" as="geometry">
            <mxPoint x="530" y="279.5" as="sourcePoint" />
            <mxPoint x="570" y="279.5" as="targetPoint" />
          </mxGeometry>
        </mxCell>
        <mxCell id="exTdn07_ICYGT6VPbYw_-107" style="edgeStyle=orthogonalEdgeStyle;rounded=0;orthogonalLoop=1;jettySize=auto;html=1;exitX=1;exitY=0;exitDx=0;exitDy=0;strokeColor=#B85450;" parent="1" source="exTdn07_ICYGT6VPbYw_-105" edge="1">
          <mxGeometry relative="1" as="geometry">
            <mxPoint x="670" y="370" as="targetPoint" />
          </mxGeometry>
        </mxCell>
        <mxCell id="exTdn07_ICYGT6VPbYw_-105" value="" style="shape=partialRectangle;whiteSpace=wrap;html=1;bottom=0;right=0;fillColor=none;strokeColor=#B85450;" parent="1" vertex="1">
          <mxGeometry x="490" y="369.5" width="150" height="20.5" as="geometry" />
        </mxCell>
        <mxCell id="exTdn07_ICYGT6VPbYw_-106" value="" style="edgeStyle=orthogonalEdgeStyle;rounded=0;orthogonalLoop=1;jettySize=auto;html=1;fillColor=#f8cecc;gradientColor=#ea6b66;strokeColor=#B85450;exitX=0;exitY=0;exitDx=20;exitDy=10;exitPerimeter=0;" parent="1" source="exTdn07_ICYGT6VPbYw_-67" edge="1">
          <mxGeometry relative="1" as="geometry">
            <mxPoint x="670" y="390" as="sourcePoint" />
            <mxPoint x="670" y="311.5" as="targetPoint" />
          </mxGeometry>
        </mxCell>
        <mxCell id="exTdn07_ICYGT6VPbYw_-110" value="" style="edgeStyle=elbowEdgeStyle;elbow=vertical;endArrow=classic;html=1;rounded=0;strokeColor=#82b366;fillColor=#d5e8d4;gradientColor=#97d077;exitX=0.5;exitY=0;exitDx=0;exitDy=0;" parent="1" source="exTdn07_ICYGT6VPbYw_-48" edge="1">
          <mxGeometry width="50" height="50" relative="1" as="geometry">
            <mxPoint x="676" y="460" as="sourcePoint" />
            <mxPoint x="510" y="290" as="targetPoint" />
            <Array as="points">
              <mxPoint x="620" y="350" />
            </Array>
          </mxGeometry>
        </mxCell>
        <mxCell id="exTdn07_ICYGT6VPbYw_-111" value="&lt;font style=&quot;font-size: 13px&quot;&gt;C&lt;br&gt;O&lt;br&gt;N&lt;br&gt;V&lt;br&gt;&lt;/font&gt;" style="rounded=0;whiteSpace=wrap;html=1;direction=east;fillColor=#ffe6cc;strokeColor=#d79b00;labelPosition=center;verticalLabelPosition=middle;align=center;verticalAlign=top;spacing=0;" parent="1" vertex="1">
          <mxGeometry x="760" y="245" width="20" height="65" as="geometry" />
        </mxCell>
        <mxCell id="exTdn07_ICYGT6VPbYw_-120" value="" style="endArrow=classic;html=1;rounded=0;fontSize=12;exitX=1;exitY=0.5;exitDx=0;exitDy=0;" parent="1" edge="1">
          <mxGeometry width="50" height="50" relative="1" as="geometry">
            <mxPoint x="778.75" y="277" as="sourcePoint" />
            <mxPoint x="800" y="277.5" as="targetPoint" />
            <Array as="points">
              <mxPoint x="790" y="277.5" />
            </Array>
          </mxGeometry>
        </mxCell>
        <mxCell id="exTdn07_ICYGT6VPbYw_-124" value="" style="endArrow=classic;html=1;rounded=0;fontSize=12;exitX=1;exitY=0.5;exitDx=0;exitDy=0;" parent="1" edge="1">
          <mxGeometry width="50" height="50" relative="1" as="geometry">
            <mxPoint x="818.75" y="277" as="sourcePoint" />
            <mxPoint x="860" y="277" as="targetPoint" />
          </mxGeometry>
        </mxCell>
        <mxCell id="exTdn07_ICYGT6VPbYw_-127" value="" style="shape=partialRectangle;whiteSpace=wrap;html=1;bottom=0;right=0;fillColor=none;strokeColor=#000000;" parent="1" vertex="1">
          <mxGeometry x="210" y="200" width="600" height="80" as="geometry" />
        </mxCell>
        <mxCell id="exTdn07_ICYGT6VPbYw_-130" value="" style="endArrow=classic;html=1;rounded=0;strokeColor=#000000;" parent="1" edge="1">
          <mxGeometry width="50" height="50" relative="1" as="geometry">
            <mxPoint x="810" y="200" as="sourcePoint" />
            <mxPoint x="810" y="270" as="targetPoint" />
          </mxGeometry>
        </mxCell>
        <mxCell id="exTdn07_ICYGT6VPbYw_-131" value="" style="endArrow=none;html=1;rounded=0;fontSize=13;strokeColor=#000000;" parent="1" edge="1">
          <mxGeometry width="50" height="50" relative="1" as="geometry">
            <mxPoint x="800" y="277.25" as="sourcePoint" />
            <mxPoint x="820" y="277" as="targetPoint" />
          </mxGeometry>
        </mxCell>
        <mxCell id="exTdn07_ICYGT6VPbYw_-132" value="" style="endArrow=none;html=1;rounded=0;fontSize=13;strokeColor=#000000;" parent="1" edge="1">
          <mxGeometry width="50" height="50" relative="1" as="geometry">
            <mxPoint x="810" y="286.88" as="sourcePoint" />
            <mxPoint x="810" y="256.88" as="targetPoint" />
          </mxGeometry>
        </mxCell>
        <mxCell id="exTdn07_ICYGT6VPbYw_-134" value="&lt;font style=&quot;font-size: 14px&quot;&gt;SAB&lt;/font&gt;" style="rounded=0;whiteSpace=wrap;html=1;fontSize=18;fillColor=#cce5ff;strokeColor=#36393d;" parent="1" vertex="1">
          <mxGeometry x="470" y="180" width="60" height="30" as="geometry" />
        </mxCell>
        <mxCell id="exTdn07_ICYGT6VPbYw_-136" value="Stage3" style="text;html=1;align=center;verticalAlign=middle;resizable=0;points=[];autosize=1;strokeColor=none;fillColor=none;fontSize=13;" parent="1" vertex="1">
          <mxGeometry x="110" y="210" width="60" height="20" as="geometry" />
        </mxCell>
        <mxCell id="exTdn07_ICYGT6VPbYw_-137" value="Stage2" style="text;html=1;align=center;verticalAlign=middle;resizable=0;points=[];autosize=1;strokeColor=none;fillColor=none;fontSize=13;" parent="1" vertex="1">
          <mxGeometry x="110" y="380" width="60" height="20" as="geometry" />
        </mxCell>
        <mxCell id="exTdn07_ICYGT6VPbYw_-138" value="Stage1" style="text;html=1;align=center;verticalAlign=middle;resizable=0;points=[];autosize=1;strokeColor=none;fillColor=none;fontSize=13;" parent="1" vertex="1">
          <mxGeometry x="110" y="580" width="60" height="20" as="geometry" />
        </mxCell>
        <mxCell id="exTdn07_ICYGT6VPbYw_-140" value="&lt;span style=&quot;color: rgb(0 , 0 , 0) ; font-family: &amp;#34;helvetica&amp;#34; ; font-size: 13px ; font-style: normal ; font-weight: 400 ; letter-spacing: normal ; text-align: center ; text-indent: 0px ; text-transform: none ; word-spacing: 0px ; background-color: rgb(248 , 249 , 250) ; display: inline ; float: none&quot;&gt;&amp;nbsp; &amp;nbsp; Input&lt;/span&gt;" style="text;whiteSpace=wrap;html=1;fontSize=13;" parent="1" vertex="1">
          <mxGeometry x="105" y="700" width="70" height="30" as="geometry" />
        </mxCell>
        <mxCell id="exTdn07_ICYGT6VPbYw_-141" value="&lt;div style=&quot;text-align: center&quot;&gt;&lt;span&gt;&lt;font face=&quot;helvetica&quot;&gt;&amp;nbsp;Output(a)&lt;/font&gt;&lt;/span&gt;&lt;/div&gt;" style="text;whiteSpace=wrap;html=1;fontSize=13;" parent="1" vertex="1">
          <mxGeometry x="645" y="695" width="70" height="30" as="geometry" />
        </mxCell>
        <mxCell id="exTdn07_ICYGT6VPbYw_-142" value="&lt;span style=&quot;color: rgb(0 , 0 , 0) ; font-family: &amp;#34;helvetica&amp;#34; ; font-size: 13px ; font-style: normal ; font-weight: 400 ; letter-spacing: normal ; text-align: center ; text-indent: 0px ; text-transform: none ; word-spacing: 0px ; background-color: rgb(248 , 249 , 250) ; display: inline ; float: none&quot;&gt;&amp;nbsp; Output(b)&lt;/span&gt;" style="text;whiteSpace=wrap;html=1;fontSize=13;" parent="1" vertex="1">
          <mxGeometry x="795" y="500" width="70" height="30" as="geometry" />
        </mxCell>
        <mxCell id="exTdn07_ICYGT6VPbYw_-143" value="&lt;div style=&quot;text-align: center&quot;&gt;&lt;span&gt;&lt;font face=&quot;helvetica&quot;&gt;&amp;nbsp;Output(c)&lt;/font&gt;&lt;/span&gt;&lt;/div&gt;" style="text;whiteSpace=wrap;html=1;fontSize=13;" parent="1" vertex="1">
          <mxGeometry x="875" y="330" width="70" height="30" as="geometry" />
        </mxCell>
        <mxCell id="exTdn07_ICYGT6VPbYw_-144" value="&lt;span style=&quot;color: rgb(0 , 0 , 0) ; font-family: &amp;#34;helvetica&amp;#34; ; font-size: 13px ; font-style: normal ; font-weight: 400 ; letter-spacing: normal ; text-align: center ; text-indent: 0px ; text-transform: none ; word-spacing: 0px ; background-color: rgb(248 , 249 , 250) ; display: inline ; float: none&quot;&gt;&amp;nbsp; &amp;nbsp; Input&lt;/span&gt;" style="text;whiteSpace=wrap;html=1;fontSize=13;" parent="1" vertex="1">
          <mxGeometry x="105" y="500" width="70" height="30" as="geometry" />
        </mxCell>
        <mxCell id="exTdn07_ICYGT6VPbYw_-145" value="&lt;span style=&quot;color: rgb(0 , 0 , 0) ; font-family: &amp;#34;helvetica&amp;#34; ; font-size: 13px ; font-style: normal ; font-weight: 400 ; letter-spacing: normal ; text-align: center ; text-indent: 0px ; text-transform: none ; word-spacing: 0px ; background-color: rgb(248 , 249 , 250) ; display: inline ; float: none&quot;&gt;&amp;nbsp; &amp;nbsp; Input&lt;/span&gt;" style="text;whiteSpace=wrap;html=1;fontSize=13;" parent="1" vertex="1">
          <mxGeometry x="105" y="330" width="70" height="30" as="geometry" />
        </mxCell>
        <mxCell id="exTdn07_ICYGT6VPbYw_-146" value="u-net" style="text;html=1;align=center;verticalAlign=middle;resizable=0;points=[];autosize=1;strokeColor=none;fillColor=none;fontSize=13;" parent="1" vertex="1">
          <mxGeometry x="389" y="610" width="50" height="20" as="geometry" />
        </mxCell>
        <mxCell id="exTdn07_ICYGT6VPbYw_-147" value="u-net" style="text;html=1;align=center;verticalAlign=middle;resizable=0;points=[];autosize=1;strokeColor=none;fillColor=none;fontSize=13;" parent="1" vertex="1">
          <mxGeometry x="560" y="390" width="50" height="20" as="geometry" />
        </mxCell>
        <mxCell id="exTdn07_ICYGT6VPbYw_-225" style="edgeStyle=orthogonalEdgeStyle;rounded=0;orthogonalLoop=1;jettySize=auto;html=1;exitX=0.5;exitY=0;exitDx=0;exitDy=0;entryX=0.5;entryY=1;entryDx=0;entryDy=0;fontSize=13;strokeColor=#000000;" parent="1" source="exTdn07_ICYGT6VPbYw_-150" target="exTdn07_ICYGT6VPbYw_-224" edge="1">
          <mxGeometry relative="1" as="geometry" />
        </mxCell>
        <mxCell id="exTdn07_ICYGT6VPbYw_-150" value="CONV" style="rounded=0;whiteSpace=wrap;html=1;fontSize=13;strokeColor=#000000;" parent="1" vertex="1">
          <mxGeometry x="953" y="757.5" width="55" height="20" as="geometry" />
        </mxCell>
        <mxCell id="exTdn07_ICYGT6VPbYw_-160" style="edgeStyle=orthogonalEdgeStyle;rounded=0;orthogonalLoop=1;jettySize=auto;html=1;exitX=0.5;exitY=0;exitDx=0;exitDy=0;entryX=0.5;entryY=1;entryDx=0;entryDy=0;fontSize=13;strokeColor=#000000;" parent="1" source="exTdn07_ICYGT6VPbYw_-161" target="exTdn07_ICYGT6VPbYw_-163" edge="1">
          <mxGeometry relative="1" as="geometry" />
        </mxCell>
        <mxCell id="exTdn07_ICYGT6VPbYw_-161" value="CONV" style="rounded=0;whiteSpace=wrap;html=1;fontSize=13;strokeColor=#000000;" parent="1" vertex="1">
          <mxGeometry x="953" y="997.5" width="55" height="20" as="geometry" />
        </mxCell>
        <mxCell id="exTdn07_ICYGT6VPbYw_-162" style="edgeStyle=orthogonalEdgeStyle;rounded=0;orthogonalLoop=1;jettySize=auto;html=1;exitX=0.5;exitY=0;exitDx=0;exitDy=0;fontSize=13;strokeColor=#000000;" parent="1" source="exTdn07_ICYGT6VPbYw_-163" target="exTdn07_ICYGT6VPbYw_-167" edge="1">
          <mxGeometry relative="1" as="geometry" />
        </mxCell>
        <mxCell id="exTdn07_ICYGT6VPbYw_-163" value="RELU" style="rounded=0;whiteSpace=wrap;html=1;fontSize=13;strokeColor=#000000;" parent="1" vertex="1">
          <mxGeometry x="953" y="957.5" width="55" height="20" as="geometry" />
        </mxCell>
        <mxCell id="exTdn07_ICYGT6VPbYw_-164" style="edgeStyle=orthogonalEdgeStyle;rounded=0;orthogonalLoop=1;jettySize=auto;html=1;exitX=0.5;exitY=0;exitDx=0;exitDy=0;entryX=0.5;entryY=1;entryDx=0;entryDy=0;fontSize=13;strokeColor=#000000;" parent="1" source="exTdn07_ICYGT6VPbYw_-165" target="exTdn07_ICYGT6VPbYw_-161" edge="1">
          <mxGeometry relative="1" as="geometry" />
        </mxCell>
        <mxCell id="exTdn07_ICYGT6VPbYw_-165" value="输入" style="rhombus;whiteSpace=wrap;html=1;fontSize=13;strokeColor=#000000;" parent="1" vertex="1">
          <mxGeometry x="960" y="1037.5" width="41" height="40" as="geometry" />
        </mxCell>
        <mxCell id="exTdn07_ICYGT6VPbYw_-177" style="edgeStyle=orthogonalEdgeStyle;rounded=0;orthogonalLoop=1;jettySize=auto;html=1;exitX=0.5;exitY=0;exitDx=0;exitDy=0;entryX=0.5;entryY=1;entryDx=0;entryDy=0;fontSize=13;strokeColor=#000000;" parent="1" source="exTdn07_ICYGT6VPbYw_-167" target="exTdn07_ICYGT6VPbYw_-170" edge="1">
          <mxGeometry relative="1" as="geometry" />
        </mxCell>
        <mxCell id="exTdn07_ICYGT6VPbYw_-167" value="CONV" style="rounded=0;whiteSpace=wrap;html=1;fontSize=13;strokeColor=#000000;" parent="1" vertex="1">
          <mxGeometry x="953" y="917.5" width="55" height="20" as="geometry" />
        </mxCell>
        <mxCell id="exTdn07_ICYGT6VPbYw_-174" style="edgeStyle=orthogonalEdgeStyle;rounded=0;orthogonalLoop=1;jettySize=auto;html=1;exitX=0.5;exitY=0;exitDx=0;exitDy=0;entryX=0.5;entryY=1;entryDx=0;entryDy=0;fontSize=13;strokeColor=#000000;" parent="1" source="exTdn07_ICYGT6VPbYw_-170" target="exTdn07_ICYGT6VPbYw_-171" edge="1">
          <mxGeometry relative="1" as="geometry" />
        </mxCell>
        <mxCell id="exTdn07_ICYGT6VPbYw_-170" value="AVG" style="rounded=0;whiteSpace=wrap;html=1;fontSize=13;strokeColor=#000000;" parent="1" vertex="1">
          <mxGeometry x="953" y="877.5" width="55" height="20" as="geometry" />
        </mxCell>
        <mxCell id="exTdn07_ICYGT6VPbYw_-176" style="edgeStyle=orthogonalEdgeStyle;rounded=0;orthogonalLoop=1;jettySize=auto;html=1;exitX=0.5;exitY=0;exitDx=0;exitDy=0;entryX=0.5;entryY=1;entryDx=0;entryDy=0;fontSize=13;strokeColor=#000000;" parent="1" source="exTdn07_ICYGT6VPbYw_-171" target="exTdn07_ICYGT6VPbYw_-175" edge="1">
          <mxGeometry relative="1" as="geometry" />
        </mxCell>
        <mxCell id="exTdn07_ICYGT6VPbYw_-171" value="CONV" style="rounded=0;whiteSpace=wrap;html=1;fontSize=13;strokeColor=#000000;" parent="1" vertex="1">
          <mxGeometry x="953" y="837.5" width="55" height="20" as="geometry" />
        </mxCell>
        <mxCell id="exTdn07_ICYGT6VPbYw_-178" style="edgeStyle=orthogonalEdgeStyle;rounded=0;orthogonalLoop=1;jettySize=auto;html=1;exitX=0.5;exitY=0;exitDx=0;exitDy=0;entryX=0.5;entryY=1;entryDx=0;entryDy=0;fontSize=13;strokeColor=#000000;" parent="1" source="exTdn07_ICYGT6VPbYw_-175" target="exTdn07_ICYGT6VPbYw_-150" edge="1">
          <mxGeometry relative="1" as="geometry" />
        </mxCell>
        <mxCell id="exTdn07_ICYGT6VPbYw_-175" value="RELU" style="rounded=0;whiteSpace=wrap;html=1;fontSize=13;strokeColor=#000000;" parent="1" vertex="1">
          <mxGeometry x="953" y="797.5" width="55" height="20" as="geometry" />
        </mxCell>
        <mxCell id="exTdn07_ICYGT6VPbYw_-192" style="edgeStyle=orthogonalEdgeStyle;rounded=0;orthogonalLoop=1;jettySize=auto;html=1;exitX=0.5;exitY=0;exitDx=0;exitDy=0;fontSize=13;strokeColor=#000000;" parent="1" source="exTdn07_ICYGT6VPbYw_-193" edge="1">
          <mxGeometry relative="1" as="geometry">
            <mxPoint x="1397.8333333333335" y="730" as="targetPoint" />
          </mxGeometry>
        </mxCell>
        <mxCell id="exTdn07_ICYGT6VPbYw_-193" value="Sigmoid" style="rounded=0;whiteSpace=wrap;html=1;fontSize=13;strokeColor=#000000;" parent="1" vertex="1">
          <mxGeometry x="1370" y="770" width="55" height="20" as="geometry" />
        </mxCell>
        <mxCell id="exTdn07_ICYGT6VPbYw_-194" style="edgeStyle=orthogonalEdgeStyle;rounded=0;orthogonalLoop=1;jettySize=auto;html=1;exitX=0.5;exitY=0;exitDx=0;exitDy=0;entryX=0.5;entryY=1;entryDx=0;entryDy=0;fontSize=13;strokeColor=#000000;" parent="1" source="exTdn07_ICYGT6VPbYw_-195" target="exTdn07_ICYGT6VPbYw_-197" edge="1">
          <mxGeometry relative="1" as="geometry" />
        </mxCell>
        <mxCell id="exTdn07_ICYGT6VPbYw_-195" value="CONV" style="rounded=0;whiteSpace=wrap;html=1;fontSize=13;strokeColor=#000000;" parent="1" vertex="1">
          <mxGeometry x="1370" y="1010" width="55" height="20" as="geometry" />
        </mxCell>
        <mxCell id="exTdn07_ICYGT6VPbYw_-196" style="edgeStyle=orthogonalEdgeStyle;rounded=0;orthogonalLoop=1;jettySize=auto;html=1;exitX=0.5;exitY=0;exitDx=0;exitDy=0;fontSize=13;strokeColor=#000000;" parent="1" source="exTdn07_ICYGT6VPbYw_-197" target="exTdn07_ICYGT6VPbYw_-201" edge="1">
          <mxGeometry relative="1" as="geometry" />
        </mxCell>
        <mxCell id="exTdn07_ICYGT6VPbYw_-197" value="RELU" style="rounded=0;whiteSpace=wrap;html=1;fontSize=13;strokeColor=#000000;" parent="1" vertex="1">
          <mxGeometry x="1370" y="970" width="55" height="20" as="geometry" />
        </mxCell>
        <mxCell id="exTdn07_ICYGT6VPbYw_-198" style="edgeStyle=orthogonalEdgeStyle;rounded=0;orthogonalLoop=1;jettySize=auto;html=1;exitX=0.5;exitY=0;exitDx=0;exitDy=0;entryX=0.5;entryY=1;entryDx=0;entryDy=0;fontSize=13;strokeColor=#000000;" parent="1" source="exTdn07_ICYGT6VPbYw_-199" target="exTdn07_ICYGT6VPbYw_-195" edge="1">
          <mxGeometry relative="1" as="geometry" />
        </mxCell>
        <mxCell id="exTdn07_ICYGT6VPbYw_-199" value="输入" style="rhombus;whiteSpace=wrap;html=1;fontSize=13;strokeColor=#000000;" parent="1" vertex="1">
          <mxGeometry x="1377" y="1050" width="41" height="40" as="geometry" />
        </mxCell>
        <mxCell id="exTdn07_ICYGT6VPbYw_-200" style="edgeStyle=orthogonalEdgeStyle;rounded=0;orthogonalLoop=1;jettySize=auto;html=1;exitX=0.5;exitY=0;exitDx=0;exitDy=0;entryX=0.5;entryY=1;entryDx=0;entryDy=0;fontSize=13;strokeColor=#000000;" parent="1" source="exTdn07_ICYGT6VPbYw_-201" target="exTdn07_ICYGT6VPbYw_-204" edge="1">
          <mxGeometry relative="1" as="geometry" />
        </mxCell>
        <mxCell id="exTdn07_ICYGT6VPbYw_-201" value="CONV" style="rounded=0;whiteSpace=wrap;html=1;fontSize=13;strokeColor=#000000;" parent="1" vertex="1">
          <mxGeometry x="1370" y="930" width="55" height="20" as="geometry" />
        </mxCell>
        <mxCell id="exTdn07_ICYGT6VPbYw_-218" style="edgeStyle=orthogonalEdgeStyle;rounded=0;orthogonalLoop=1;jettySize=auto;html=1;exitX=0.5;exitY=0;exitDx=0;exitDy=0;entryX=0.5;entryY=1;entryDx=0;entryDy=0;fontSize=13;strokeColor=#000000;" parent="1" source="exTdn07_ICYGT6VPbYw_-202" target="exTdn07_ICYGT6VPbYw_-214" edge="1">
          <mxGeometry relative="1" as="geometry" />
        </mxCell>
        <mxCell id="exTdn07_ICYGT6VPbYw_-202" value="CONV" style="rounded=0;whiteSpace=wrap;html=1;fontSize=13;strokeColor=#000000;" parent="1" vertex="1">
          <mxGeometry x="1250" y="920" width="55" height="20" as="geometry" />
        </mxCell>
        <mxCell id="exTdn07_ICYGT6VPbYw_-203" style="edgeStyle=orthogonalEdgeStyle;rounded=0;orthogonalLoop=1;jettySize=auto;html=1;exitX=0.5;exitY=0;exitDx=0;exitDy=0;entryX=0.5;entryY=1;entryDx=0;entryDy=0;fontSize=13;strokeColor=#000000;" parent="1" source="exTdn07_ICYGT6VPbYw_-204" target="exTdn07_ICYGT6VPbYw_-206" edge="1">
          <mxGeometry relative="1" as="geometry" />
        </mxCell>
        <mxCell id="exTdn07_ICYGT6VPbYw_-204" value="CONV" style="rounded=0;whiteSpace=wrap;html=1;fontSize=13;strokeColor=#000000;" parent="1" vertex="1">
          <mxGeometry x="1370" y="890" width="55" height="20" as="geometry" />
        </mxCell>
        <mxCell id="exTdn07_ICYGT6VPbYw_-205" style="edgeStyle=orthogonalEdgeStyle;rounded=0;orthogonalLoop=1;jettySize=auto;html=1;exitX=0.5;exitY=0;exitDx=0;exitDy=0;entryX=0.5;entryY=1;entryDx=0;entryDy=0;fontSize=13;strokeColor=#000000;" parent="1" source="exTdn07_ICYGT6VPbYw_-206" target="exTdn07_ICYGT6VPbYw_-208" edge="1">
          <mxGeometry relative="1" as="geometry" />
        </mxCell>
        <mxCell id="exTdn07_ICYGT6VPbYw_-206" value="RELU" style="rounded=0;whiteSpace=wrap;html=1;fontSize=13;strokeColor=#000000;" parent="1" vertex="1">
          <mxGeometry x="1370" y="850" width="55" height="20" as="geometry" />
        </mxCell>
        <mxCell id="exTdn07_ICYGT6VPbYw_-207" style="edgeStyle=orthogonalEdgeStyle;rounded=0;orthogonalLoop=1;jettySize=auto;html=1;exitX=0.5;exitY=0;exitDx=0;exitDy=0;entryX=0.5;entryY=1;entryDx=0;entryDy=0;fontSize=13;strokeColor=#000000;" parent="1" source="exTdn07_ICYGT6VPbYw_-208" target="exTdn07_ICYGT6VPbYw_-193" edge="1">
          <mxGeometry relative="1" as="geometry" />
        </mxCell>
        <mxCell id="exTdn07_ICYGT6VPbYw_-208" value="CONV" style="rounded=0;whiteSpace=wrap;html=1;fontSize=13;strokeColor=#000000;" parent="1" vertex="1">
          <mxGeometry x="1370" y="810" width="55" height="20" as="geometry" />
        </mxCell>
        <mxCell id="exTdn07_ICYGT6VPbYw_-212" value="" style="shape=partialRectangle;whiteSpace=wrap;html=1;bottom=0;right=0;fillColor=none;fontSize=13;strokeColor=#000000;strokeWidth=1;direction=west;" parent="1" vertex="1">
          <mxGeometry x="1418" y="750" width="82" height="320" as="geometry" />
        </mxCell>
        <mxCell id="exTdn07_ICYGT6VPbYw_-213" value="" style="endArrow=classic;html=1;rounded=0;fontSize=13;strokeColor=#000000;entryX=1;entryY=0.5;entryDx=0;entryDy=0;" parent="1" edge="1">
          <mxGeometry width="50" height="50" relative="1" as="geometry">
            <mxPoint x="1500" y="749.1700000000001" as="sourcePoint" />
            <mxPoint x="1400" y="749.1700000000001" as="targetPoint" />
          </mxGeometry>
        </mxCell>
        <mxCell id="exTdn07_ICYGT6VPbYw_-219" style="edgeStyle=orthogonalEdgeStyle;rounded=0;orthogonalLoop=1;jettySize=auto;html=1;exitX=0.5;exitY=0;exitDx=0;exitDy=0;entryX=0.5;entryY=1;entryDx=0;entryDy=0;fontSize=13;strokeColor=#000000;" parent="1" source="exTdn07_ICYGT6VPbYw_-214" target="exTdn07_ICYGT6VPbYw_-216" edge="1">
          <mxGeometry relative="1" as="geometry" />
        </mxCell>
        <mxCell id="exTdn07_ICYGT6VPbYw_-214" value="RELU" style="rounded=0;whiteSpace=wrap;html=1;fontSize=13;strokeColor=#000000;" parent="1" vertex="1">
          <mxGeometry x="1250" y="880" width="55" height="20" as="geometry" />
        </mxCell>
        <mxCell id="exTdn07_ICYGT6VPbYw_-220" style="edgeStyle=orthogonalEdgeStyle;rounded=0;orthogonalLoop=1;jettySize=auto;html=1;exitX=0.5;exitY=0;exitDx=0;exitDy=0;entryX=0.5;entryY=1;entryDx=0;entryDy=0;fontSize=13;strokeColor=#000000;" parent="1" source="exTdn07_ICYGT6VPbYw_-216" target="exTdn07_ICYGT6VPbYw_-217" edge="1">
          <mxGeometry relative="1" as="geometry" />
        </mxCell>
        <mxCell id="exTdn07_ICYGT6VPbYw_-216" value="CONV" style="rounded=0;whiteSpace=wrap;html=1;fontSize=13;strokeColor=#000000;" parent="1" vertex="1">
          <mxGeometry x="1250" y="840" width="55" height="20" as="geometry" />
        </mxCell>
        <mxCell id="exTdn07_ICYGT6VPbYw_-217" value="AVG" style="rounded=0;whiteSpace=wrap;html=1;fontSize=13;strokeColor=#000000;" parent="1" vertex="1">
          <mxGeometry x="1250" y="800" width="55" height="20" as="geometry" />
        </mxCell>
        <mxCell id="exTdn07_ICYGT6VPbYw_-222" value="" style="endArrow=none;html=1;rounded=0;fontSize=13;strokeColor=#000000;" parent="1" edge="1">
          <mxGeometry width="50" height="50" relative="1" as="geometry">
            <mxPoint x="1280" y="800" as="sourcePoint" />
            <mxPoint x="1280" y="780" as="targetPoint" />
          </mxGeometry>
        </mxCell>
        <mxCell id="exTdn07_ICYGT6VPbYw_-223" value="" style="endArrow=classic;html=1;rounded=0;fontSize=13;strokeColor=#000000;entryX=0;entryY=0.5;entryDx=0;entryDy=0;" parent="1" target="exTdn07_ICYGT6VPbYw_-193" edge="1">
          <mxGeometry width="50" height="50" relative="1" as="geometry">
            <mxPoint x="1280" y="780" as="sourcePoint" />
            <mxPoint x="1330" y="730" as="targetPoint" />
          </mxGeometry>
        </mxCell>
        <mxCell id="exTdn07_ICYGT6VPbYw_-227" style="edgeStyle=orthogonalEdgeStyle;rounded=0;orthogonalLoop=1;jettySize=auto;html=1;exitX=0.5;exitY=0;exitDx=0;exitDy=0;fontSize=13;strokeColor=#000000;" parent="1" source="exTdn07_ICYGT6VPbYw_-224" edge="1">
          <mxGeometry relative="1" as="geometry">
            <mxPoint x="980.8333333333335" y="667.5" as="targetPoint" />
          </mxGeometry>
        </mxCell>
        <mxCell id="exTdn07_ICYGT6VPbYw_-224" value="Sigmoid" style="rounded=0;whiteSpace=wrap;html=1;fontSize=13;strokeColor=#000000;" parent="1" vertex="1">
          <mxGeometry x="953" y="717.5" width="55" height="20" as="geometry" />
        </mxCell>
        <mxCell id="exTdn07_ICYGT6VPbYw_-226" value="" style="shape=partialRectangle;whiteSpace=wrap;html=1;bottom=0;right=0;fillColor=none;fontSize=13;strokeColor=#000000;strokeWidth=1;direction=west;" parent="1" vertex="1">
          <mxGeometry x="1001" y="697.5" width="82" height="360" as="geometry" />
        </mxCell>
        <mxCell id="exTdn07_ICYGT6VPbYw_-228" value="" style="endArrow=classic;html=1;rounded=0;fontSize=13;strokeColor=#000000;entryX=1;entryY=0.5;entryDx=0;entryDy=0;" parent="1" edge="1">
          <mxGeometry width="50" height="50" relative="1" as="geometry">
            <mxPoint x="1083" y="697.5000000000001" as="sourcePoint" />
            <mxPoint x="983" y="697.5000000000001" as="targetPoint" />
          </mxGeometry>
        </mxCell>
        <mxCell id="exTdn07_ICYGT6VPbYw_-229" value="" style="shape=partialRectangle;whiteSpace=wrap;html=1;bottom=0;right=0;fillColor=none;fontSize=13;strokeColor=#000000;strokeWidth=1;direction=north;" parent="1" vertex="1">
          <mxGeometry x="893" y="727.5" width="90" height="150" as="geometry" />
        </mxCell>
        <mxCell id="exTdn07_ICYGT6VPbYw_-230" value="" style="endArrow=classic;html=1;rounded=0;fontSize=13;strokeColor=#000000;entryX=0.994;entryY=0.68;entryDx=0;entryDy=0;entryPerimeter=0;" parent="1" target="exTdn07_ICYGT6VPbYw_-229" edge="1">
          <mxGeometry width="50" height="50" relative="1" as="geometry">
            <mxPoint x="893" y="727.67" as="sourcePoint" />
            <mxPoint x="946" y="727.5" as="targetPoint" />
          </mxGeometry>
        </mxCell>
        <mxCell id="exTdn07_ICYGT6VPbYw_-236" style="edgeStyle=orthogonalEdgeStyle;rounded=0;orthogonalLoop=1;jettySize=auto;html=1;exitX=0;exitY=0.5;exitDx=0;exitDy=0;exitPerimeter=0;entryX=0.5;entryY=1;entryDx=0;entryDy=0;fontSize=13;strokeColor=#000000;" parent="1" source="exTdn07_ICYGT6VPbYw_-232" target="exTdn07_ICYGT6VPbYw_-202" edge="1">
          <mxGeometry relative="1" as="geometry" />
        </mxCell>
        <mxCell id="exTdn07_ICYGT6VPbYw_-232" value="" style="line;strokeWidth=1;html=1;fontSize=13;" parent="1" vertex="1">
          <mxGeometry x="1300" y="1065" width="77" height="10" as="geometry" />
        </mxCell>
        <mxCell id="exTdn07_ICYGT6VPbYw_-237" value="CAB(通道注意力模块)" style="text;html=1;align=center;verticalAlign=middle;resizable=0;points=[];autosize=1;strokeColor=none;fillColor=none;fontSize=13;" parent="1" vertex="1">
          <mxGeometry x="910.5" y="1092.5" width="140" height="20" as="geometry" />
        </mxCell>
        <mxCell id="exTdn07_ICYGT6VPbYw_-238" value="CAM(通道注意力模块)" style="text;html=1;align=center;verticalAlign=middle;resizable=0;points=[];autosize=1;strokeColor=none;fillColor=none;fontSize=13;" parent="1" vertex="1">
          <mxGeometry x="1327.5" y="1100" width="140" height="20" as="geometry" />
        </mxCell>
        <mxCell id="exTdn07_ICYGT6VPbYw_-257" style="edgeStyle=orthogonalEdgeStyle;rounded=0;orthogonalLoop=1;jettySize=auto;html=1;exitX=0;exitY=0.5;exitDx=0;exitDy=0;fontSize=13;strokeColor=#000000;" parent="1" source="exTdn07_ICYGT6VPbYw_-239" edge="1">
          <mxGeometry relative="1" as="geometry">
            <mxPoint x="1709.9999999999995" y="980" as="targetPoint" />
          </mxGeometry>
        </mxCell>
        <mxCell id="exTdn07_ICYGT6VPbYw_-239" value="输入" style="rhombus;whiteSpace=wrap;html=1;fontSize=13;strokeColor=#000000;" parent="1" vertex="1">
          <mxGeometry x="1780" y="960" width="41" height="40" as="geometry" />
        </mxCell>
        <mxCell id="exTdn07_ICYGT6VPbYw_-240" value="CONV" style="rounded=0;whiteSpace=wrap;html=1;fontSize=13;strokeColor=#000000;" parent="1" vertex="1">
          <mxGeometry x="1560" y="950" width="55" height="20" as="geometry" />
        </mxCell>
        <mxCell id="exTdn07_ICYGT6VPbYw_-241" value="Sigmoid" style="rounded=0;whiteSpace=wrap;html=1;fontSize=13;strokeColor=#000000;" parent="1" vertex="1">
          <mxGeometry x="1680" y="840" width="55" height="20" as="geometry" />
        </mxCell>
        <mxCell id="exTdn07_ICYGT6VPbYw_-255" style="edgeStyle=orthogonalEdgeStyle;rounded=0;orthogonalLoop=1;jettySize=auto;html=1;exitX=0.5;exitY=0;exitDx=0;exitDy=0;entryX=0.5;entryY=1;entryDx=0;entryDy=0;fontSize=13;strokeColor=#000000;" parent="1" source="exTdn07_ICYGT6VPbYw_-242" target="exTdn07_ICYGT6VPbYw_-253" edge="1">
          <mxGeometry relative="1" as="geometry" />
        </mxCell>
        <mxCell id="exTdn07_ICYGT6VPbYw_-242" value="CONV" style="rounded=0;whiteSpace=wrap;html=1;fontSize=13;strokeColor=#000000;" parent="1" vertex="1">
          <mxGeometry x="1680" y="990" width="55" height="20" as="geometry" />
        </mxCell>
        <mxCell id="exTdn07_ICYGT6VPbYw_-260" style="edgeStyle=orthogonalEdgeStyle;rounded=0;orthogonalLoop=1;jettySize=auto;html=1;exitX=0.5;exitY=0;exitDx=0;exitDy=0;fontSize=13;strokeColor=#000000;" parent="1" source="exTdn07_ICYGT6VPbYw_-245" edge="1">
          <mxGeometry relative="1" as="geometry">
            <mxPoint x="1707.8333333333335" y="860" as="targetPoint" />
          </mxGeometry>
        </mxCell>
        <mxCell id="exTdn07_ICYGT6VPbYw_-245" value="CONV" style="rounded=0;whiteSpace=wrap;html=1;fontSize=13;strokeColor=#000000;" parent="1" vertex="1">
          <mxGeometry x="1680" y="880" width="55" height="20" as="geometry" />
        </mxCell>
        <mxCell id="exTdn07_ICYGT6VPbYw_-249" value="" style="endArrow=classic;html=1;rounded=0;fontSize=13;strokeColor=#000000;" parent="1" edge="1">
          <mxGeometry width="50" height="50" relative="1" as="geometry">
            <mxPoint x="1590" y="1020" as="sourcePoint" />
            <mxPoint x="1590" y="970" as="targetPoint" />
            <Array as="points">
              <mxPoint x="1590" y="1000" />
            </Array>
          </mxGeometry>
        </mxCell>
        <mxCell id="exTdn07_ICYGT6VPbYw_-252" value="" style="endArrow=classic;html=1;rounded=0;fontSize=13;strokeColor=#000000;" parent="1" edge="1">
          <mxGeometry width="50" height="50" relative="1" as="geometry">
            <mxPoint x="1590" y="1000" as="sourcePoint" />
            <mxPoint x="1680" y="1000" as="targetPoint" />
          </mxGeometry>
        </mxCell>
        <mxCell id="exTdn07_ICYGT6VPbYw_-259" style="edgeStyle=orthogonalEdgeStyle;rounded=0;orthogonalLoop=1;jettySize=auto;html=1;exitX=0.5;exitY=0;exitDx=0;exitDy=0;entryX=0.5;entryY=1;entryDx=0;entryDy=0;fontSize=13;strokeColor=#000000;" parent="1" source="exTdn07_ICYGT6VPbYw_-253" target="exTdn07_ICYGT6VPbYw_-245" edge="1">
          <mxGeometry relative="1" as="geometry" />
        </mxCell>
        <mxCell id="exTdn07_ICYGT6VPbYw_-253" value="输出" style="rhombus;whiteSpace=wrap;html=1;fontSize=13;strokeColor=#000000;" parent="1" vertex="1">
          <mxGeometry x="1687" y="920" width="41" height="40" as="geometry" />
        </mxCell>
        <mxCell id="exTdn07_ICYGT6VPbYw_-264" value="" style="shape=partialRectangle;whiteSpace=wrap;html=1;bottom=0;right=0;fillColor=none;fontSize=13;strokeColor=#000000;strokeWidth=1;" parent="1" vertex="1">
          <mxGeometry x="1590" y="820" width="50" height="130" as="geometry" />
        </mxCell>
        <mxCell id="exTdn07_ICYGT6VPbYw_-266" style="edgeStyle=orthogonalEdgeStyle;rounded=0;orthogonalLoop=1;jettySize=auto;html=1;exitX=0;exitY=1;exitDx=0;exitDy=0;fontSize=13;strokeColor=#000000;" parent="1" source="exTdn07_ICYGT6VPbYw_-265" edge="1">
          <mxGeometry relative="1" as="geometry">
            <mxPoint x="1640.3333333333335" y="770" as="targetPoint" />
          </mxGeometry>
        </mxCell>
        <mxCell id="exTdn07_ICYGT6VPbYw_-265" value="" style="shape=partialRectangle;whiteSpace=wrap;html=1;bottom=0;right=0;fillColor=none;fontSize=13;strokeColor=#000000;strokeWidth=1;direction=south;" parent="1" vertex="1">
          <mxGeometry x="1640" y="820" width="70" height="20" as="geometry" />
        </mxCell>
        <mxCell id="exTdn07_ICYGT6VPbYw_-268" value="SAM(监督注意模块)" style="text;html=1;align=center;verticalAlign=middle;resizable=0;points=[];autosize=1;strokeColor=none;fillColor=none;fontSize=13;" parent="1" vertex="1">
          <mxGeometry x="1600" y="1030" width="130" height="20" as="geometry" />
        </mxCell>
        <mxCell id="exTdn07_ICYGT6VPbYw_-273" style="edgeStyle=orthogonalEdgeStyle;rounded=0;orthogonalLoop=1;jettySize=auto;html=1;exitX=0.5;exitY=0;exitDx=0;exitDy=0;entryX=0.5;entryY=1;entryDx=0;entryDy=0;fontSize=13;strokeColor=#000000;" parent="1" source="exTdn07_ICYGT6VPbYw_-269" target="exTdn07_ICYGT6VPbYw_-270" edge="1">
          <mxGeometry relative="1" as="geometry" />
        </mxCell>
        <mxCell id="exTdn07_ICYGT6VPbYw_-269" value="CAB" style="rounded=0;whiteSpace=wrap;html=1;fontSize=13;strokeColor=#000000;" parent="1" vertex="1">
          <mxGeometry x="1922.5" y="940" width="55" height="20" as="geometry" />
        </mxCell>
        <mxCell id="exTdn07_ICYGT6VPbYw_-274" style="edgeStyle=orthogonalEdgeStyle;rounded=0;orthogonalLoop=1;jettySize=auto;html=1;exitX=0.5;exitY=0;exitDx=0;exitDy=0;entryX=0.5;entryY=1;entryDx=0;entryDy=0;fontSize=13;strokeColor=#000000;" parent="1" source="exTdn07_ICYGT6VPbYw_-270" target="exTdn07_ICYGT6VPbYw_-271" edge="1">
          <mxGeometry relative="1" as="geometry" />
        </mxCell>
        <mxCell id="exTdn07_ICYGT6VPbYw_-270" value="CAB" style="rounded=0;whiteSpace=wrap;html=1;fontSize=13;strokeColor=#000000;" parent="1" vertex="1">
          <mxGeometry x="1922.5" y="900" width="55" height="20" as="geometry" />
        </mxCell>
        <mxCell id="exTdn07_ICYGT6VPbYw_-275" style="edgeStyle=orthogonalEdgeStyle;rounded=0;orthogonalLoop=1;jettySize=auto;html=1;exitX=0.5;exitY=0;exitDx=0;exitDy=0;fontSize=13;strokeColor=#000000;" parent="1" source="exTdn07_ICYGT6VPbYw_-271" edge="1">
          <mxGeometry relative="1" as="geometry">
            <mxPoint x="1950.5" y="810" as="targetPoint" />
          </mxGeometry>
        </mxCell>
        <mxCell id="exTdn07_ICYGT6VPbYw_-271" value="CONV" style="rounded=0;whiteSpace=wrap;html=1;fontSize=13;strokeColor=#000000;" parent="1" vertex="1">
          <mxGeometry x="1922.5" y="860" width="55" height="20" as="geometry" />
        </mxCell>
        <mxCell id="exTdn07_ICYGT6VPbYw_-272" value="" style="endArrow=classic;html=1;rounded=0;fontSize=13;strokeColor=#000000;" parent="1" edge="1">
          <mxGeometry width="50" height="50" relative="1" as="geometry">
            <mxPoint x="1952.5" y="1010" as="sourcePoint" />
            <mxPoint x="1952.5" y="960" as="targetPoint" />
          </mxGeometry>
        </mxCell>
        <mxCell id="exTdn07_ICYGT6VPbYw_-279" style="edgeStyle=orthogonalEdgeStyle;rounded=0;orthogonalLoop=1;jettySize=auto;html=1;exitX=1;exitY=0;exitDx=0;exitDy=0;fontSize=13;strokeColor=#000000;" parent="1" source="exTdn07_ICYGT6VPbYw_-276" edge="1">
          <mxGeometry relative="1" as="geometry">
            <mxPoint x="1952.5" y="830" as="targetPoint" />
          </mxGeometry>
        </mxCell>
        <mxCell id="exTdn07_ICYGT6VPbYw_-276" value="" style="shape=partialRectangle;whiteSpace=wrap;html=1;bottom=0;right=0;fillColor=none;fontSize=13;strokeColor=#000000;strokeWidth=1;direction=north;" parent="1" vertex="1">
          <mxGeometry x="1882.5" y="850" width="70" height="140" as="geometry" />
        </mxCell>
        <mxCell id="exTdn07_ICYGT6VPbYw_-280" value="ORB(原始分辨率模块)" style="text;html=1;align=center;verticalAlign=middle;resizable=0;points=[];autosize=1;strokeColor=none;fillColor=none;fontSize=13;" parent="1" vertex="1">
          <mxGeometry x="1880" y="1030" width="140" height="20" as="geometry" />
        </mxCell>
        <mxCell id="exTdn07_ICYGT6VPbYw_-281" value="CONV" style="rounded=0;whiteSpace=wrap;html=1;fontSize=13;strokeColor=#000000;" parent="1" vertex="1">
          <mxGeometry x="2270" y="1330" width="55" height="20" as="geometry" />
        </mxCell>
        <mxCell id="exTdn07_ICYGT6VPbYw_-282" value="Sigmoid" style="rounded=0;whiteSpace=wrap;html=1;fontSize=13;strokeColor=#000000;" parent="1" vertex="1">
          <mxGeometry x="1625" y="586.25" width="55" height="20" as="geometry" />
        </mxCell>
        <mxCell id="exTdn07_ICYGT6VPbYw_-283" value="RELU" style="rounded=0;whiteSpace=wrap;html=1;fontSize=13;strokeColor=#000000;" parent="1" vertex="1">
          <mxGeometry x="1615" y="693.75" width="55" height="20" as="geometry" />
        </mxCell>
        <mxCell id="exTdn07_ICYGT6VPbYw_-296" style="edgeStyle=orthogonalEdgeStyle;rounded=0;orthogonalLoop=1;jettySize=auto;html=1;exitX=0.5;exitY=0;exitDx=0;exitDy=0;entryX=0.5;entryY=1;entryDx=0;entryDy=0;fontSize=13;strokeColor=#000000;" parent="1" source="exTdn07_ICYGT6VPbYw_-284" target="exTdn07_ICYGT6VPbYw_-285" edge="1">
          <mxGeometry relative="1" as="geometry" />
        </mxCell>
        <mxCell id="exTdn07_ICYGT6VPbYw_-321" value="" style="edgeStyle=orthogonalEdgeStyle;rounded=0;orthogonalLoop=1;jettySize=auto;html=1;fontSize=13;strokeColor=#000000;" parent="1" source="exTdn07_ICYGT6VPbYw_-284" target="exTdn07_ICYGT6VPbYw_-288" edge="1">
          <mxGeometry relative="1" as="geometry" />
        </mxCell>
        <mxCell id="exTdn07_ICYGT6VPbYw_-284" value="CONV" style="rounded=0;whiteSpace=wrap;html=1;fontSize=13;strokeColor=#000000;" parent="1" vertex="1">
          <mxGeometry x="2270" y="1290" width="55" height="20" as="geometry" />
        </mxCell>
        <mxCell id="exTdn07_ICYGT6VPbYw_-313" style="edgeStyle=orthogonalEdgeStyle;rounded=0;orthogonalLoop=1;jettySize=auto;html=1;exitX=0.5;exitY=0;exitDx=0;exitDy=0;entryX=0.5;entryY=1;entryDx=0;entryDy=0;fontSize=13;strokeColor=#000000;" parent="1" source="exTdn07_ICYGT6VPbYw_-285" target="exTdn07_ICYGT6VPbYw_-286" edge="1">
          <mxGeometry relative="1" as="geometry" />
        </mxCell>
        <mxCell id="exTdn07_ICYGT6VPbYw_-285" value="CONV" style="rounded=0;whiteSpace=wrap;html=1;fontSize=13;strokeColor=#000000;" parent="1" vertex="1">
          <mxGeometry x="2270" y="1250" width="55" height="20" as="geometry" />
        </mxCell>
        <mxCell id="exTdn07_ICYGT6VPbYw_-314" style="edgeStyle=orthogonalEdgeStyle;rounded=0;orthogonalLoop=1;jettySize=auto;html=1;exitX=0.5;exitY=0;exitDx=0;exitDy=0;fontSize=13;strokeColor=#000000;" parent="1" source="exTdn07_ICYGT6VPbYw_-286" edge="1">
          <mxGeometry relative="1" as="geometry">
            <mxPoint x="2297.8333333333335" y="1190" as="targetPoint" />
          </mxGeometry>
        </mxCell>
        <mxCell id="exTdn07_ICYGT6VPbYw_-286" value="RELU" style="rounded=0;whiteSpace=wrap;html=1;fontSize=13;strokeColor=#000000;" parent="1" vertex="1">
          <mxGeometry x="2270" y="1210" width="55" height="20" as="geometry" />
        </mxCell>
        <mxCell id="exTdn07_ICYGT6VPbYw_-287" value="Sigmoid" style="rounded=0;whiteSpace=wrap;html=1;fontSize=13;strokeColor=#000000;" parent="1" vertex="1">
          <mxGeometry x="2270" y="1130" width="55" height="20" as="geometry" />
        </mxCell>
        <mxCell id="exTdn07_ICYGT6VPbYw_-315" style="edgeStyle=orthogonalEdgeStyle;rounded=0;orthogonalLoop=1;jettySize=auto;html=1;exitX=0.5;exitY=0;exitDx=0;exitDy=0;entryX=0.5;entryY=1;entryDx=0;entryDy=0;fontSize=13;strokeColor=#000000;" parent="1" source="exTdn07_ICYGT6VPbYw_-288" target="exTdn07_ICYGT6VPbYw_-287" edge="1">
          <mxGeometry relative="1" as="geometry" />
        </mxCell>
        <mxCell id="exTdn07_ICYGT6VPbYw_-288" value="CONV" style="rounded=0;whiteSpace=wrap;html=1;fontSize=13;strokeColor=#000000;" parent="1" vertex="1">
          <mxGeometry x="2270" y="1169" width="55" height="20" as="geometry" />
        </mxCell>
        <mxCell id="exTdn07_ICYGT6VPbYw_-292" value="CONV" style="rounded=0;whiteSpace=wrap;html=1;fontSize=13;strokeColor=#000000;" parent="1" vertex="1">
          <mxGeometry x="1885" y="673.75" width="55" height="20" as="geometry" />
        </mxCell>
        <mxCell id="exTdn07_ICYGT6VPbYw_-325" style="edgeStyle=orthogonalEdgeStyle;rounded=0;orthogonalLoop=1;jettySize=auto;html=1;exitX=0.5;exitY=0;exitDx=0;exitDy=0;entryX=0.5;entryY=1;entryDx=0;entryDy=0;fontSize=13;strokeColor=#000000;" parent="1" source="exTdn07_ICYGT6VPbYw_-309" target="exTdn07_ICYGT6VPbYw_-310" edge="1">
          <mxGeometry relative="1" as="geometry" />
        </mxCell>
        <mxCell id="exTdn07_ICYGT6VPbYw_-309" value="CONV" style="rounded=0;whiteSpace=wrap;html=1;fontSize=13;strokeColor=#000000;" parent="1" vertex="1">
          <mxGeometry x="2170" y="1391" width="55" height="20" as="geometry" />
        </mxCell>
        <mxCell id="exTdn07_ICYGT6VPbYw_-326" style="edgeStyle=orthogonalEdgeStyle;rounded=0;orthogonalLoop=1;jettySize=auto;html=1;exitX=0.5;exitY=0;exitDx=0;exitDy=0;entryX=0.5;entryY=1;entryDx=0;entryDy=0;fontSize=13;strokeColor=#000000;" parent="1" source="exTdn07_ICYGT6VPbYw_-310" target="exTdn07_ICYGT6VPbYw_-311" edge="1">
          <mxGeometry relative="1" as="geometry" />
        </mxCell>
        <mxCell id="exTdn07_ICYGT6VPbYw_-310" value="RELU" style="rounded=0;whiteSpace=wrap;html=1;fontSize=13;strokeColor=#000000;" parent="1" vertex="1">
          <mxGeometry x="2170" y="1350" width="55" height="20" as="geometry" />
        </mxCell>
        <mxCell id="exTdn07_ICYGT6VPbYw_-327" style="edgeStyle=orthogonalEdgeStyle;rounded=0;orthogonalLoop=1;jettySize=auto;html=1;exitX=0.5;exitY=0;exitDx=0;exitDy=0;entryX=0.5;entryY=1;entryDx=0;entryDy=0;fontSize=13;strokeColor=#000000;" parent="1" source="exTdn07_ICYGT6VPbYw_-311" target="exTdn07_ICYGT6VPbYw_-312" edge="1">
          <mxGeometry relative="1" as="geometry" />
        </mxCell>
        <mxCell id="exTdn07_ICYGT6VPbYw_-311" value="CONV" style="rounded=0;whiteSpace=wrap;html=1;fontSize=13;strokeColor=#000000;" parent="1" vertex="1">
          <mxGeometry x="2170" y="1310" width="55" height="20" as="geometry" />
        </mxCell>
        <mxCell id="exTdn07_ICYGT6VPbYw_-312" value="Sigmoid" style="rounded=0;whiteSpace=wrap;html=1;fontSize=13;strokeColor=#000000;" parent="1" vertex="1">
          <mxGeometry x="2170" y="1270" width="55" height="20" as="geometry" />
        </mxCell>
        <mxCell id="exTdn07_ICYGT6VPbYw_-318" value="" style="endArrow=none;html=1;rounded=0;fontSize=13;strokeColor=#000000;" parent="1" edge="1">
          <mxGeometry width="50" height="50" relative="1" as="geometry">
            <mxPoint x="2200" y="1440" as="sourcePoint" />
            <mxPoint x="2300" y="1440" as="targetPoint" />
          </mxGeometry>
        </mxCell>
        <mxCell id="exTdn07_ICYGT6VPbYw_-319" value="" style="endArrow=classic;html=1;rounded=0;fontSize=13;strokeColor=#000000;" parent="1" edge="1">
          <mxGeometry width="50" height="50" relative="1" as="geometry">
            <mxPoint x="2300" y="1480" as="sourcePoint" />
            <mxPoint x="2300.08" y="1351" as="targetPoint" />
          </mxGeometry>
        </mxCell>
        <mxCell id="exTdn07_ICYGT6VPbYw_-322" style="edgeStyle=orthogonalEdgeStyle;rounded=0;orthogonalLoop=1;jettySize=auto;html=1;exitX=0.5;exitY=0;exitDx=0;exitDy=0;entryX=0.5;entryY=1;entryDx=0;entryDy=0;fontSize=13;strokeColor=#000000;" parent="1" edge="1">
          <mxGeometry relative="1" as="geometry">
            <mxPoint x="2297.0799999999995" y="1330" as="sourcePoint" />
            <mxPoint x="2297.0799999999995" y="1310" as="targetPoint" />
          </mxGeometry>
        </mxCell>
        <mxCell id="exTdn07_ICYGT6VPbYw_-323" value="" style="endArrow=classic;html=1;rounded=0;fontSize=13;strokeColor=#000000;" parent="1" edge="1">
          <mxGeometry width="50" height="50" relative="1" as="geometry">
            <mxPoint x="2200" y="1439" as="sourcePoint" />
            <mxPoint x="2200" y="1410" as="targetPoint" />
          </mxGeometry>
        </mxCell>
        <mxCell id="exTdn07_ICYGT6VPbYw_-324" value="" style="endArrow=classic;html=1;rounded=0;fontSize=13;strokeColor=#000000;exitX=1;exitY=0.5;exitDx=0;exitDy=0;" parent="1" source="exTdn07_ICYGT6VPbYw_-312" edge="1">
          <mxGeometry width="50" height="50" relative="1" as="geometry">
            <mxPoint x="2225" y="1290" as="sourcePoint" />
            <mxPoint x="2300" y="1280" as="targetPoint" />
          </mxGeometry>
        </mxCell>
        <mxCell id="exTdn07_ICYGT6VPbYw_-330" value="SAB(空间注意力模块)" style="text;html=1;align=center;verticalAlign=middle;resizable=0;points=[];autosize=1;strokeColor=none;fillColor=none;fontSize=13;" parent="1" vertex="1">
          <mxGeometry x="2220" y="1500" width="140" height="20" as="geometry" />
        </mxCell>
        <mxCell id="exTdn07_ICYGT6VPbYw_-334" value="" style="shape=cube;whiteSpace=wrap;html=1;boundedLbl=1;backgroundOutline=1;darkOpacity=0.05;darkOpacity2=0.1;fontSize=13;strokeColor=#000000;strokeWidth=1;" parent="1" vertex="1">
          <mxGeometry x="805" y="1283" width="105" height="30" as="geometry" />
        </mxCell>
        <mxCell id="exTdn07_ICYGT6VPbYw_-335" value="" style="shape=cube;whiteSpace=wrap;html=1;boundedLbl=1;backgroundOutline=1;darkOpacity=0.05;darkOpacity2=0.1;fontSize=13;strokeColor=#000000;strokeWidth=1;" parent="1" vertex="1">
          <mxGeometry x="817.5" y="1323" width="80" height="30" as="geometry" />
        </mxCell>
        <mxCell id="exTdn07_ICYGT6VPbYw_-336" value="" style="shape=cube;whiteSpace=wrap;html=1;boundedLbl=1;backgroundOutline=1;darkOpacity=0.05;darkOpacity2=0.1;fontSize=13;strokeColor=#000000;strokeWidth=1;" parent="1" vertex="1">
          <mxGeometry x="827.5" y="1360.5" width="60" height="30" as="geometry" />
        </mxCell>
        <mxCell id="exTdn07_ICYGT6VPbYw_-337" value="" style="shape=cube;whiteSpace=wrap;html=1;boundedLbl=1;backgroundOutline=1;darkOpacity=0.05;darkOpacity2=0.1;fontSize=13;strokeColor=#000000;strokeWidth=1;" parent="1" vertex="1">
          <mxGeometry x="960" y="1285.5" width="105" height="30" as="geometry" />
        </mxCell>
        <mxCell id="exTdn07_ICYGT6VPbYw_-338" value="" style="shape=cube;whiteSpace=wrap;html=1;boundedLbl=1;backgroundOutline=1;darkOpacity=0.05;darkOpacity2=0.1;fontSize=13;strokeColor=#000000;strokeWidth=1;" parent="1" vertex="1">
          <mxGeometry x="972.5" y="1325.5" width="80" height="30" as="geometry" />
        </mxCell>
        <mxCell id="exTdn07_ICYGT6VPbYw_-339" value="" style="shape=cube;whiteSpace=wrap;html=1;boundedLbl=1;backgroundOutline=1;darkOpacity=0.05;darkOpacity2=0.1;fontSize=13;strokeColor=#000000;strokeWidth=1;" parent="1" vertex="1">
          <mxGeometry x="982.5" y="1363" width="60" height="30" as="geometry" />
        </mxCell>
        <mxCell id="exTdn07_ICYGT6VPbYw_-343" value="" style="endArrow=classic;html=1;rounded=0;fontSize=13;strokeColor=#000000;" parent="1" edge="1">
          <mxGeometry width="50" height="50" relative="1" as="geometry">
            <mxPoint x="895" y="1342.58" as="sourcePoint" />
            <mxPoint x="985" y="1342.58" as="targetPoint" />
          </mxGeometry>
        </mxCell>
        <mxCell id="exTdn07_ICYGT6VPbYw_-344" value="" style="endArrow=classic;html=1;rounded=0;fontSize=13;strokeColor=#000000;entryX=0;entryY=0;entryDx=10;entryDy=20;entryPerimeter=0;" parent="1" target="exTdn07_ICYGT6VPbYw_-339" edge="1">
          <mxGeometry width="50" height="50" relative="1" as="geometry">
            <mxPoint x="888" y="1383.5" as="sourcePoint" />
            <mxPoint x="990" y="1385.5" as="targetPoint" />
          </mxGeometry>
        </mxCell>
        <mxCell id="exTdn07_ICYGT6VPbYw_-345" value="" style="endArrow=classic;html=1;rounded=0;fontSize=13;strokeColor=#000000;" parent="1" edge="1">
          <mxGeometry width="50" height="50" relative="1" as="geometry">
            <mxPoint x="910" y="1302.58" as="sourcePoint" />
            <mxPoint x="980" y="1303" as="targetPoint" />
          </mxGeometry>
        </mxCell>
        <mxCell id="exTdn07_ICYGT6VPbYw_-349" value="" style="endArrow=classic;html=1;rounded=0;fontSize=13;strokeColor=#000000;" parent="1" edge="1">
          <mxGeometry width="50" height="50" relative="1" as="geometry">
            <mxPoint x="857.08" y="1353" as="sourcePoint" />
            <mxPoint x="857.2400000000001" y="1378" as="targetPoint" />
          </mxGeometry>
        </mxCell>
        <mxCell id="exTdn07_ICYGT6VPbYw_-351" value="" style="endArrow=classic;html=1;rounded=0;fontSize=13;strokeColor=#000000;" parent="1" edge="1">
          <mxGeometry width="50" height="50" relative="1" as="geometry">
            <mxPoint x="1010" y="1355.5" as="sourcePoint" />
            <mxPoint x="1010.1600000000003" y="1380.5" as="targetPoint" />
          </mxGeometry>
        </mxCell>
        <mxCell id="exTdn07_ICYGT6VPbYw_-352" value="" style="endArrow=classic;html=1;rounded=0;fontSize=13;strokeColor=#000000;" parent="1" edge="1">
          <mxGeometry width="50" height="50" relative="1" as="geometry">
            <mxPoint x="1010" y="1355.5" as="sourcePoint" />
            <mxPoint x="1010.1600000000003" y="1380.5" as="targetPoint" />
          </mxGeometry>
        </mxCell>
        <mxCell id="exTdn07_ICYGT6VPbYw_-354" value="" style="endArrow=classic;html=1;rounded=0;fontSize=13;strokeColor=#000000;" parent="1" edge="1">
          <mxGeometry width="50" height="50" relative="1" as="geometry">
            <mxPoint x="857.34" y="1313" as="sourcePoint" />
            <mxPoint x="857.0800000000004" y="1335.5" as="targetPoint" />
          </mxGeometry>
        </mxCell>
        <mxCell id="exTdn07_ICYGT6VPbYw_-355" value="" style="endArrow=classic;html=1;rounded=0;fontSize=13;strokeColor=#000000;" parent="1" edge="1">
          <mxGeometry width="50" height="50" relative="1" as="geometry">
            <mxPoint x="1010.2600000000002" y="1315.5" as="sourcePoint" />
            <mxPoint x="1010.0000000000005" y="1338" as="targetPoint" />
          </mxGeometry>
        </mxCell>
        <mxCell id="exTdn07_ICYGT6VPbYw_-356" value="编码器" style="text;html=1;align=center;verticalAlign=middle;resizable=0;points=[];autosize=1;strokeColor=none;fillColor=none;fontSize=13;" parent="1" vertex="1">
          <mxGeometry x="832.5" y="1253" width="50" height="20" as="geometry" />
        </mxCell>
        <mxCell id="exTdn07_ICYGT6VPbYw_-358" value="解码器" style="text;html=1;align=center;verticalAlign=middle;resizable=0;points=[];autosize=1;strokeColor=none;fillColor=none;fontSize=13;" parent="1" vertex="1">
          <mxGeometry x="987.5" y="1253" width="50" height="20" as="geometry" />
        </mxCell>
        <mxCell id="exTdn07_ICYGT6VPbYw_-359" value="u-net(编码解码网络)" style="text;html=1;align=center;verticalAlign=middle;resizable=0;points=[];autosize=1;strokeColor=none;fillColor=none;fontSize=13;" parent="1" vertex="1">
          <mxGeometry x="865" y="1403" width="130" height="20" as="geometry" />
        </mxCell>
        <mxCell id="exTdn07_ICYGT6VPbYw_-360" value="1" style="text;html=1;align=center;verticalAlign=middle;resizable=0;points=[];autosize=1;strokeColor=none;fillColor=none;fontSize=13;" parent="1" vertex="1">
          <mxGeometry x="775" y="1295.5" width="20" height="20" as="geometry" />
        </mxCell>
        <mxCell id="exTdn07_ICYGT6VPbYw_-361" value="1/2" style="text;html=1;align=center;verticalAlign=middle;resizable=0;points=[];autosize=1;strokeColor=none;fillColor=none;fontSize=13;" parent="1" vertex="1">
          <mxGeometry x="787.5" y="1335.5" width="30" height="20" as="geometry" />
        </mxCell>
        <mxCell id="exTdn07_ICYGT6VPbYw_-362" value="1/4" style="text;html=1;align=center;verticalAlign=middle;resizable=0;points=[];autosize=1;strokeColor=none;fillColor=none;fontSize=13;" parent="1" vertex="1">
          <mxGeometry x="795" y="1373" width="30" height="20" as="geometry" />
        </mxCell>
        <mxCell id="exTdn07_ICYGT6VPbYw_-363" value="1" style="text;html=1;align=center;verticalAlign=middle;resizable=0;points=[];autosize=1;strokeColor=none;fillColor=none;fontSize=13;" parent="1" vertex="1">
          <mxGeometry x="1081" y="1295.5" width="20" height="20" as="geometry" />
        </mxCell>
        <mxCell id="exTdn07_ICYGT6VPbYw_-364" value="1/2" style="text;html=1;align=center;verticalAlign=middle;resizable=0;points=[];autosize=1;strokeColor=none;fillColor=none;fontSize=13;" parent="1" vertex="1">
          <mxGeometry x="1060" y="1335.5" width="30" height="20" as="geometry" />
        </mxCell>
        <mxCell id="exTdn07_ICYGT6VPbYw_-365" value="1/4" style="text;html=1;align=center;verticalAlign=middle;resizable=0;points=[];autosize=1;strokeColor=none;fillColor=none;fontSize=13;" parent="1" vertex="1">
          <mxGeometry x="1056" y="1373" width="30" height="20" as="geometry" />
        </mxCell>
        <mxCell id="exTdn07_ICYGT6VPbYw_-368" value="" style="html=1;shadow=0;dashed=0;align=center;verticalAlign=middle;shape=mxgraph.arrows2.arrow;dy=0.6;dx=40;notch=0;fontSize=13;strokeColor=#000000;strokeWidth=1;" parent="1" vertex="1">
          <mxGeometry x="323" y="1879" width="114" height="67" as="geometry" />
        </mxCell>
        <mxCell id="exTdn07_ICYGT6VPbYw_-369" value="" style="verticalLabelPosition=bottom;verticalAlign=top;html=1;shape=mxgraph.basic.rect;fillColor2=none;strokeWidth=1;size=20;indent=5;fontSize=13;" parent="1" vertex="1">
          <mxGeometry x="510" y="1882.5" width="120" height="60" as="geometry" />
        </mxCell>
        <mxCell id="exTdn07_ICYGT6VPbYw_-370" value="&lt;b&gt;模型训练&lt;/b&gt;" style="text;html=1;align=center;verticalAlign=middle;resizable=0;points=[];autosize=1;strokeColor=none;fillColor=none;fontSize=13;" parent="1" vertex="1">
          <mxGeometry x="536" y="1902" width="62" height="20" as="geometry" />
        </mxCell>
        <mxCell id="exTdn07_ICYGT6VPbYw_-371" value="&lt;b&gt;输入样本&lt;/b&gt;" style="text;html=1;align=center;verticalAlign=middle;resizable=0;points=[];autosize=1;strokeColor=none;fillColor=none;fontSize=13;" parent="1" vertex="1">
          <mxGeometry x="109" y="1976" width="62" height="20" as="geometry" />
        </mxCell>
        <mxCell id="exTdn07_ICYGT6VPbYw_-372" value="" style="html=1;shadow=0;dashed=0;align=center;verticalAlign=middle;shape=mxgraph.arrows2.arrow;dy=0.6;dx=40;notch=0;fontSize=13;strokeColor=#000000;strokeWidth=1;" parent="1" vertex="1">
          <mxGeometry x="264" y="2194.75" width="114" height="67" as="geometry" />
        </mxCell>
        <mxCell id="exTdn07_ICYGT6VPbYw_-373" value="&lt;b&gt;Multi-Stage Attention Network(多阶段注意力网络)&lt;/b&gt;" style="text;html=1;align=center;verticalAlign=middle;resizable=0;points=[];autosize=1;strokeColor=none;fillColor=none;fontSize=13;" parent="1" vertex="1">
          <mxGeometry x="389" y="2006" width="308" height="20" as="geometry" />
        </mxCell>
        <mxCell id="exTdn07_ICYGT6VPbYw_-374" value="" style="edgeStyle=elbowEdgeStyle;elbow=vertical;endArrow=classic;html=1;rounded=0;fontSize=13;strokeColor=#B85450;entryX=0;entryY=0;entryDx=36.99999999999999;entryDy=20.099999999999998;entryPerimeter=0;exitX=0.474;exitY=1.117;exitDx=0;exitDy=0;exitPerimeter=0;dashed=1;fillColor=#cdeb8b;" parent="1" source="exTdn07_ICYGT6VPbYw_-373" target="exTdn07_ICYGT6VPbYw_-372" edge="1">
          <mxGeometry width="50" height="50" relative="1" as="geometry">
            <mxPoint x="541" y="2063" as="sourcePoint" />
            <mxPoint x="318" y="2198" as="targetPoint" />
          </mxGeometry>
        </mxCell>
        <mxCell id="exTdn07_ICYGT6VPbYw_-387" value="引用训练模型" style="edgeLabel;html=1;align=center;verticalAlign=middle;resizable=0;points=[];fontSize=13;" parent="exTdn07_ICYGT6VPbYw_-374" vertex="1" connectable="0">
          <mxGeometry x="-0.0623" y="1" relative="1" as="geometry">
            <mxPoint as="offset" />
          </mxGeometry>
        </mxCell>
        <mxCell id="exTdn07_ICYGT6VPbYw_-377" value="" style="verticalLabelPosition=bottom;verticalAlign=top;html=1;shape=mxgraph.basic.rect;fillColor2=none;strokeWidth=1;size=20;indent=5;fontSize=13;" parent="1" vertex="1">
          <mxGeometry x="390" y="2202" width="86" height="56.25" as="geometry" />
        </mxCell>
        <mxCell id="exTdn07_ICYGT6VPbYw_-378" value="&lt;b&gt;输出结果图像&lt;/b&gt;" style="text;html=1;align=center;verticalAlign=middle;resizable=0;points=[];autosize=1;strokeColor=none;fillColor=none;fontSize=13;" parent="1" vertex="1">
          <mxGeometry x="388" y="2218.25" width="88" height="20" as="geometry" />
        </mxCell>
        <mxCell id="exTdn07_ICYGT6VPbYw_-379" value="" style="html=1;shadow=0;dashed=0;align=center;verticalAlign=middle;shape=mxgraph.arrows2.arrow;dy=0.6;dx=40;notch=0;fontSize=13;strokeColor=#000000;strokeWidth=1;" parent="1" vertex="1">
          <mxGeometry x="499" y="2202" width="81" height="54.75" as="geometry" />
        </mxCell>
        <mxCell id="exTdn07_ICYGT6VPbYw_-380" value="" style="verticalLabelPosition=bottom;verticalAlign=top;html=1;shape=mxgraph.basic.rect;fillColor2=none;strokeWidth=1;size=20;indent=5;fontSize=13;" parent="1" vertex="1">
          <mxGeometry x="597" y="2195" width="115" height="59.75" as="geometry" />
        </mxCell>
        <mxCell id="exTdn07_ICYGT6VPbYw_-381" value="&lt;b&gt;实验评估指标&lt;/b&gt;" style="text;html=1;align=center;verticalAlign=middle;resizable=0;points=[];autosize=1;strokeColor=none;fillColor=none;fontSize=13;" parent="1" vertex="1">
          <mxGeometry x="608" y="2214.88" width="88" height="20" as="geometry" />
        </mxCell>
        <mxCell id="exTdn07_ICYGT6VPbYw_-383" value="(a)" style="text;html=1;align=center;verticalAlign=middle;resizable=0;points=[];autosize=1;strokeColor=none;fillColor=none;fontSize=13;" parent="1" vertex="1">
          <mxGeometry x="44" y="1819" width="26" height="20" as="geometry" />
        </mxCell>
        <mxCell id="exTdn07_ICYGT6VPbYw_-384" value="(b)" style="text;html=1;align=center;verticalAlign=middle;resizable=0;points=[];autosize=1;strokeColor=none;fillColor=none;fontSize=13;" parent="1" vertex="1">
          <mxGeometry x="52" y="2121" width="26" height="20" as="geometry" />
        </mxCell>
        <mxCell id="exTdn07_ICYGT6VPbYw_-385" value="&lt;b&gt;输入样本&lt;/b&gt;" style="text;html=1;align=center;verticalAlign=middle;resizable=0;points=[];autosize=1;strokeColor=none;fillColor=none;fontSize=13;" parent="1" vertex="1">
          <mxGeometry x="109" y="2299" width="62" height="20" as="geometry" />
        </mxCell>
        <mxCell id="QorDNzhxJ9jWXFMAlyIK-1" value="" style="rounded=0;whiteSpace=wrap;html=1;" vertex="1" parent="1">
          <mxGeometry x="1332" y="1884.88" width="100" height="80" as="geometry" />
        </mxCell>
        <mxCell id="QorDNzhxJ9jWXFMAlyIK-2" value="" style="rounded=0;whiteSpace=wrap;html=1;" vertex="1" parent="1">
          <mxGeometry x="1332" y="1714.88" width="100" height="80" as="geometry" />
        </mxCell>
        <mxCell id="QorDNzhxJ9jWXFMAlyIK-3" value="" style="rounded=0;whiteSpace=wrap;html=1;" vertex="1" parent="1">
          <mxGeometry x="1332" y="2084.88" width="100" height="80" as="geometry" />
        </mxCell>
        <mxCell id="QorDNzhxJ9jWXFMAlyIK-4" value="" style="endArrow=none;html=1;rounded=0;entryX=0.5;entryY=0;entryDx=0;entryDy=0;exitX=0.5;exitY=1;exitDx=0;exitDy=0;" edge="1" parent="1" source="QorDNzhxJ9jWXFMAlyIK-3" target="QorDNzhxJ9jWXFMAlyIK-3">
          <mxGeometry width="50" height="50" relative="1" as="geometry">
            <mxPoint x="1362" y="2159.88" as="sourcePoint" />
            <mxPoint x="1412" y="2109.88" as="targetPoint" />
          </mxGeometry>
        </mxCell>
        <mxCell id="QorDNzhxJ9jWXFMAlyIK-5" value="" style="endArrow=none;html=1;rounded=0;entryX=1;entryY=0.5;entryDx=0;entryDy=0;entryPerimeter=0;exitX=0;exitY=0.5;exitDx=0;exitDy=0;" edge="1" parent="1" source="QorDNzhxJ9jWXFMAlyIK-3" target="QorDNzhxJ9jWXFMAlyIK-3">
          <mxGeometry width="50" height="50" relative="1" as="geometry">
            <mxPoint x="1357" y="2164.88" as="sourcePoint" />
            <mxPoint x="1407" y="2114.88" as="targetPoint" />
          </mxGeometry>
        </mxCell>
        <mxCell id="QorDNzhxJ9jWXFMAlyIK-6" value="" style="endArrow=none;html=1;rounded=0;entryX=0.5;entryY=0;entryDx=0;entryDy=0;exitX=0.5;exitY=1;exitDx=0;exitDy=0;" edge="1" parent="1">
          <mxGeometry width="50" height="50" relative="1" as="geometry">
            <mxPoint x="1381.5" y="1964.88" as="sourcePoint" />
            <mxPoint x="1381.5" y="1884.88" as="targetPoint" />
          </mxGeometry>
        </mxCell>
        <mxCell id="QorDNzhxJ9jWXFMAlyIK-7" value="&lt;font style=&quot;font-size: 13px&quot;&gt;C&lt;br&gt;O&lt;br&gt;N&lt;br&gt;V&lt;br&gt;&lt;/font&gt;" style="rounded=0;whiteSpace=wrap;html=1;direction=east;labelPosition=center;verticalLabelPosition=middle;align=center;verticalAlign=top;spacing=0;" vertex="1" parent="1">
          <mxGeometry x="1472" y="1722.38" width="20" height="65" as="geometry" />
        </mxCell>
        <mxCell id="QorDNzhxJ9jWXFMAlyIK-8" value="&lt;font style=&quot;font-size: 14px&quot;&gt;SAM&lt;/font&gt;" style="rounded=0;whiteSpace=wrap;html=1;fontSize=18;" vertex="1" parent="1">
          <mxGeometry x="1792" y="2109.88" width="60" height="30" as="geometry" />
        </mxCell>
        <mxCell id="QorDNzhxJ9jWXFMAlyIK-9" value="c" style="ellipse;whiteSpace=wrap;html=1;aspect=fixed;fontSize=18;" vertex="1" parent="1">
          <mxGeometry x="1646" y="1914.88" width="20" height="20" as="geometry" />
        </mxCell>
        <mxCell id="QorDNzhxJ9jWXFMAlyIK-10" value="" style="ellipse;whiteSpace=wrap;html=1;aspect=fixed;fontSize=18;" vertex="1" parent="1">
          <mxGeometry x="2042" y="1743.0100000000002" width="18.75" height="18.75" as="geometry" />
        </mxCell>
        <mxCell id="QorDNzhxJ9jWXFMAlyIK-11" value="" style="shape=cube;whiteSpace=wrap;html=1;boundedLbl=1;backgroundOutline=1;darkOpacity=0.05;darkOpacity2=0.1;fontSize=18;" vertex="1" parent="1">
          <mxGeometry x="1552" y="2074.88" width="30" height="100" as="geometry" />
        </mxCell>
        <mxCell id="QorDNzhxJ9jWXFMAlyIK-12" value="" style="edgeStyle=orthogonalEdgeStyle;rounded=0;orthogonalLoop=1;jettySize=auto;html=1;" edge="1" parent="1" source="QorDNzhxJ9jWXFMAlyIK-13" target="QorDNzhxJ9jWXFMAlyIK-18">
          <mxGeometry relative="1" as="geometry">
            <Array as="points">
              <mxPoint x="1642" y="2147.88" />
              <mxPoint x="1642" y="2147.88" />
            </Array>
          </mxGeometry>
        </mxCell>
        <mxCell id="QorDNzhxJ9jWXFMAlyIK-13" value="" style="shape=cube;whiteSpace=wrap;html=1;boundedLbl=1;backgroundOutline=1;darkOpacity=0.05;darkOpacity2=0.1;fontSize=18;" vertex="1" parent="1">
          <mxGeometry x="1582" y="2099.88" width="30" height="75" as="geometry" />
        </mxCell>
        <mxCell id="QorDNzhxJ9jWXFMAlyIK-14" value="" style="edgeStyle=orthogonalEdgeStyle;rounded=0;orthogonalLoop=1;jettySize=auto;html=1;fontSize=18;" edge="1" parent="1" source="QorDNzhxJ9jWXFMAlyIK-15" target="QorDNzhxJ9jWXFMAlyIK-18">
          <mxGeometry relative="1" as="geometry" />
        </mxCell>
        <mxCell id="QorDNzhxJ9jWXFMAlyIK-15" value="" style="shape=cube;whiteSpace=wrap;html=1;boundedLbl=1;backgroundOutline=1;darkOpacity=0.05;darkOpacity2=0.1;fontSize=18;" vertex="1" parent="1">
          <mxGeometry x="1612" y="2119.88" width="30" height="55" as="geometry" />
        </mxCell>
        <mxCell id="QorDNzhxJ9jWXFMAlyIK-16" value="" style="shape=cube;whiteSpace=wrap;html=1;boundedLbl=1;backgroundOutline=1;darkOpacity=0.05;darkOpacity2=0.1;fontSize=18;" vertex="1" parent="1">
          <mxGeometry x="1722" y="2079.88" width="30" height="95" as="geometry" />
        </mxCell>
        <mxCell id="QorDNzhxJ9jWXFMAlyIK-17" value="" style="shape=cube;whiteSpace=wrap;html=1;boundedLbl=1;backgroundOutline=1;darkOpacity=0.05;darkOpacity2=0.1;fontSize=18;" vertex="1" parent="1">
          <mxGeometry x="1692" y="2099.88" width="30" height="75" as="geometry" />
        </mxCell>
        <mxCell id="QorDNzhxJ9jWXFMAlyIK-18" value="" style="shape=cube;whiteSpace=wrap;html=1;boundedLbl=1;backgroundOutline=1;darkOpacity=0.05;darkOpacity2=0.1;fontSize=18;" vertex="1" parent="1">
          <mxGeometry x="1662" y="2119.88" width="30" height="55" as="geometry" />
        </mxCell>
        <mxCell id="QorDNzhxJ9jWXFMAlyIK-19" value="" style="rounded=0;whiteSpace=wrap;html=1;" vertex="1" parent="1">
          <mxGeometry x="1872" y="2084.88" width="100" height="80" as="geometry" />
        </mxCell>
        <mxCell id="QorDNzhxJ9jWXFMAlyIK-20" value="" style="endArrow=none;html=1;rounded=0;exitX=0.5;exitY=1;exitDx=0;exitDy=0;" edge="1" parent="1">
          <mxGeometry width="50" height="50" relative="1" as="geometry">
            <mxPoint x="1921.5" y="2164.88" as="sourcePoint" />
            <mxPoint x="1922" y="2084.88" as="targetPoint" />
          </mxGeometry>
        </mxCell>
        <mxCell id="QorDNzhxJ9jWXFMAlyIK-21" value="" style="rounded=0;whiteSpace=wrap;html=1;" vertex="1" parent="1">
          <mxGeometry x="2022" y="1884.88" width="100" height="80" as="geometry" />
        </mxCell>
        <mxCell id="QorDNzhxJ9jWXFMAlyIK-22" value="" style="rounded=0;whiteSpace=wrap;html=1;" vertex="1" parent="1">
          <mxGeometry x="2102" y="1714.88" width="100" height="80" as="geometry" />
        </mxCell>
        <mxCell id="QorDNzhxJ9jWXFMAlyIK-23" value="&lt;font style=&quot;font-size: 13px&quot;&gt;S&lt;br&gt;A&lt;br&gt;B&lt;br&gt;&lt;/font&gt;" style="rounded=0;whiteSpace=wrap;html=1;direction=east;labelPosition=center;verticalLabelPosition=middle;align=center;verticalAlign=top;spacing=3;" vertex="1" parent="1">
          <mxGeometry x="1492" y="1722.38" width="20" height="65" as="geometry" />
        </mxCell>
        <mxCell id="QorDNzhxJ9jWXFMAlyIK-25" value="&lt;font style=&quot;font-size: 13px;&quot;&gt;C&lt;br style=&quot;font-size: 13px;&quot;&gt;O&lt;br style=&quot;font-size: 13px;&quot;&gt;N&lt;br style=&quot;font-size: 13px;&quot;&gt;V&lt;br style=&quot;font-size: 13px;&quot;&gt;&lt;/font&gt;" style="rounded=0;whiteSpace=wrap;html=1;direction=east;labelPosition=center;verticalLabelPosition=middle;align=center;verticalAlign=top;fontSize=13;spacing=0;" vertex="1" parent="1">
          <mxGeometry x="1472" y="1892.38" width="20" height="65" as="geometry" />
        </mxCell>
        <mxCell id="QorDNzhxJ9jWXFMAlyIK-26" value="&lt;font style=&quot;font-size: 13px&quot;&gt;S&lt;br&gt;A&lt;br&gt;B&lt;br style=&quot;font-size: 13px&quot;&gt;&lt;/font&gt;" style="rounded=0;whiteSpace=wrap;html=1;direction=east;labelPosition=center;verticalLabelPosition=middle;align=center;verticalAlign=top;fontSize=13;spacing=3;" vertex="1" parent="1">
          <mxGeometry x="1492" y="1892.38" width="20" height="65" as="geometry" />
        </mxCell>
        <mxCell id="QorDNzhxJ9jWXFMAlyIK-27" value="" style="edgeStyle=orthogonalEdgeStyle;rounded=0;orthogonalLoop=1;jettySize=auto;html=1;exitX=1;exitY=0.5;exitDx=0;exitDy=0;" edge="1" parent="1" source="QorDNzhxJ9jWXFMAlyIK-26" target="QorDNzhxJ9jWXFMAlyIK-9">
          <mxGeometry relative="1" as="geometry">
            <mxPoint x="1532" y="1924.88" as="sourcePoint" />
          </mxGeometry>
        </mxCell>
        <mxCell id="QorDNzhxJ9jWXFMAlyIK-29" value="&lt;font style=&quot;font-size: 13px;&quot;&gt;C&lt;br style=&quot;font-size: 13px;&quot;&gt;O&lt;br style=&quot;font-size: 13px;&quot;&gt;N&lt;br style=&quot;font-size: 13px;&quot;&gt;V&lt;br style=&quot;font-size: 13px;&quot;&gt;&lt;/font&gt;" style="rounded=0;whiteSpace=wrap;html=1;direction=east;labelPosition=center;verticalLabelPosition=middle;align=center;verticalAlign=top;fontSize=13;spacing=0;" vertex="1" parent="1">
          <mxGeometry x="1472" y="2092.38" width="20" height="65" as="geometry" />
        </mxCell>
        <mxCell id="QorDNzhxJ9jWXFMAlyIK-30" value="&lt;font style=&quot;font-size: 13px&quot;&gt;S&lt;br&gt;A&lt;br&gt;B&lt;br style=&quot;font-size: 13px&quot;&gt;&lt;/font&gt;" style="rounded=0;whiteSpace=wrap;html=1;direction=east;labelPosition=center;verticalLabelPosition=middle;align=center;verticalAlign=top;fontSize=13;spacing=3;" vertex="1" parent="1">
          <mxGeometry x="1492" y="2092.38" width="20" height="65" as="geometry" />
        </mxCell>
        <mxCell id="QorDNzhxJ9jWXFMAlyIK-31" value="" style="edgeStyle=orthogonalEdgeStyle;rounded=0;orthogonalLoop=1;jettySize=auto;html=1;exitX=1;exitY=0.5;exitDx=0;exitDy=0;" edge="1" parent="1" source="QorDNzhxJ9jWXFMAlyIK-30">
          <mxGeometry relative="1" as="geometry">
            <mxPoint x="1552" y="2124.88" as="targetPoint" />
            <mxPoint x="1532" y="2124.9" as="sourcePoint" />
          </mxGeometry>
        </mxCell>
        <mxCell id="QorDNzhxJ9jWXFMAlyIK-33" value="" style="endArrow=classic;html=1;rounded=0;fontSize=12;exitX=1;exitY=0.5;exitDx=0;exitDy=0;entryX=0;entryY=0.5;entryDx=0;entryDy=0;" edge="1" parent="1" source="QorDNzhxJ9jWXFMAlyIK-3" target="QorDNzhxJ9jWXFMAlyIK-29">
          <mxGeometry width="50" height="50" relative="1" as="geometry">
            <mxPoint x="1632" y="2039.88" as="sourcePoint" />
            <mxPoint x="1682" y="1989.88" as="targetPoint" />
          </mxGeometry>
        </mxCell>
        <mxCell id="QorDNzhxJ9jWXFMAlyIK-34" value="" style="endArrow=classic;html=1;rounded=0;fontSize=12;entryX=0;entryY=0.5;entryDx=0;entryDy=0;exitX=1;exitY=0.5;exitDx=0;exitDy=0;" edge="1" parent="1" source="QorDNzhxJ9jWXFMAlyIK-2" target="QorDNzhxJ9jWXFMAlyIK-7">
          <mxGeometry width="50" height="50" relative="1" as="geometry">
            <mxPoint x="1462" y="1864.88" as="sourcePoint" />
            <mxPoint x="1512" y="1814.88" as="targetPoint" />
          </mxGeometry>
        </mxCell>
        <mxCell id="QorDNzhxJ9jWXFMAlyIK-35" value="" style="endArrow=classic;html=1;rounded=0;fontSize=12;entryX=0;entryY=0.5;entryDx=0;entryDy=0;exitX=1;exitY=0.5;exitDx=0;exitDy=0;" edge="1" parent="1" source="QorDNzhxJ9jWXFMAlyIK-1" target="QorDNzhxJ9jWXFMAlyIK-25">
          <mxGeometry width="50" height="50" relative="1" as="geometry">
            <mxPoint x="1442" y="1764.88" as="sourcePoint" />
            <mxPoint x="1482" y="1764.88" as="targetPoint" />
          </mxGeometry>
        </mxCell>
        <mxCell id="QorDNzhxJ9jWXFMAlyIK-36" value="" style="html=1;verticalAlign=bottom;endArrow=block;rounded=0;" edge="1" parent="1">
          <mxGeometry width="80" relative="1" as="geometry">
            <mxPoint x="1752" y="2124.38" as="sourcePoint" />
            <mxPoint x="1792" y="2124.88" as="targetPoint" />
          </mxGeometry>
        </mxCell>
        <mxCell id="QorDNzhxJ9jWXFMAlyIK-37" value="" style="html=1;verticalAlign=bottom;endArrow=block;rounded=0;" edge="1" parent="1">
          <mxGeometry width="80" relative="1" as="geometry">
            <mxPoint x="1852" y="2124.38" as="sourcePoint" />
            <mxPoint x="1872" y="2124.88" as="targetPoint" />
          </mxGeometry>
        </mxCell>
        <mxCell id="QorDNzhxJ9jWXFMAlyIK-38" value="" style="shape=partialRectangle;whiteSpace=wrap;html=1;bottom=0;right=0;fillColor=none;direction=north;" vertex="1" parent="1">
          <mxGeometry x="1452" y="2124.88" width="370" height="90" as="geometry" />
        </mxCell>
        <mxCell id="QorDNzhxJ9jWXFMAlyIK-39" value="" style="html=1;verticalAlign=bottom;endArrow=block;rounded=0;entryX=0;entryY=0.5;entryDx=0;entryDy=0;" edge="1" parent="1" target="QorDNzhxJ9jWXFMAlyIK-41">
          <mxGeometry width="80" relative="1" as="geometry">
            <mxPoint x="1922" y="1924.38" as="sourcePoint" />
            <mxPoint x="1992" y="1924.88" as="targetPoint" />
          </mxGeometry>
        </mxCell>
        <mxCell id="QorDNzhxJ9jWXFMAlyIK-40" value="" style="edgeStyle=orthogonalEdgeStyle;rounded=0;orthogonalLoop=1;jettySize=auto;html=1;strokeColor=#000000;" edge="1" parent="1" source="QorDNzhxJ9jWXFMAlyIK-41" target="QorDNzhxJ9jWXFMAlyIK-21">
          <mxGeometry relative="1" as="geometry" />
        </mxCell>
        <mxCell id="QorDNzhxJ9jWXFMAlyIK-41" value="&lt;font style=&quot;font-size: 14px&quot;&gt;SAM&lt;/font&gt;" style="rounded=0;whiteSpace=wrap;html=1;fontSize=18;" vertex="1" parent="1">
          <mxGeometry x="1942" y="1909.88" width="60" height="30" as="geometry" />
        </mxCell>
        <mxCell id="QorDNzhxJ9jWXFMAlyIK-42" value="" style="shape=partialRectangle;whiteSpace=wrap;html=1;bottom=0;right=0;direction=north;" vertex="1" parent="1">
          <mxGeometry x="1572" y="2174.88" width="170" height="30" as="geometry" />
        </mxCell>
        <mxCell id="QorDNzhxJ9jWXFMAlyIK-43" value="" style="endArrow=classic;html=1;rounded=0;" edge="1" parent="1">
          <mxGeometry relative="1" as="geometry">
            <mxPoint x="1742" y="2204.88" as="sourcePoint" />
            <mxPoint x="1742" y="2174.88" as="targetPoint" />
          </mxGeometry>
        </mxCell>
        <mxCell id="QorDNzhxJ9jWXFMAlyIK-44" style="edgeStyle=orthogonalEdgeStyle;rounded=0;orthogonalLoop=1;jettySize=auto;html=1;exitX=0;exitY=0.5;exitDx=0;exitDy=0;" edge="1" parent="1" source="QorDNzhxJ9jWXFMAlyIK-42" target="QorDNzhxJ9jWXFMAlyIK-42">
          <mxGeometry relative="1" as="geometry" />
        </mxCell>
        <mxCell id="QorDNzhxJ9jWXFMAlyIK-45" value="" style="shape=partialRectangle;whiteSpace=wrap;html=1;bottom=0;right=0;direction=north;" vertex="1" parent="1">
          <mxGeometry x="1602" y="2175" width="110" height="20" as="geometry" />
        </mxCell>
        <mxCell id="QorDNzhxJ9jWXFMAlyIK-46" value="" style="endArrow=classic;html=1;rounded=0;" edge="1" parent="1">
          <mxGeometry relative="1" as="geometry">
            <mxPoint x="1712" y="2194.88" as="sourcePoint" />
            <mxPoint x="1712" y="2169.88" as="targetPoint" />
          </mxGeometry>
        </mxCell>
        <mxCell id="QorDNzhxJ9jWXFMAlyIK-47" value="" style="shape=cube;whiteSpace=wrap;html=1;boundedLbl=1;backgroundOutline=1;darkOpacity=0.05;darkOpacity2=0.1;fontSize=18;" vertex="1" parent="1">
          <mxGeometry x="1722" y="1859.38" width="30" height="100" as="geometry" />
        </mxCell>
        <mxCell id="QorDNzhxJ9jWXFMAlyIK-48" value="" style="edgeStyle=orthogonalEdgeStyle;rounded=0;orthogonalLoop=1;jettySize=auto;html=1;" edge="1" parent="1" source="QorDNzhxJ9jWXFMAlyIK-49" target="QorDNzhxJ9jWXFMAlyIK-54">
          <mxGeometry relative="1" as="geometry">
            <Array as="points">
              <mxPoint x="1812" y="1932.38" />
              <mxPoint x="1812" y="1932.38" />
            </Array>
          </mxGeometry>
        </mxCell>
        <mxCell id="QorDNzhxJ9jWXFMAlyIK-49" value="" style="shape=cube;whiteSpace=wrap;html=1;boundedLbl=1;backgroundOutline=1;darkOpacity=0.05;darkOpacity2=0.1;fontSize=18;" vertex="1" parent="1">
          <mxGeometry x="1752" y="1884.38" width="30" height="75" as="geometry" />
        </mxCell>
        <mxCell id="QorDNzhxJ9jWXFMAlyIK-50" value="" style="edgeStyle=orthogonalEdgeStyle;rounded=0;orthogonalLoop=1;jettySize=auto;html=1;fontSize=18;" edge="1" parent="1" source="QorDNzhxJ9jWXFMAlyIK-51" target="QorDNzhxJ9jWXFMAlyIK-54">
          <mxGeometry relative="1" as="geometry" />
        </mxCell>
        <mxCell id="QorDNzhxJ9jWXFMAlyIK-51" value="" style="shape=cube;whiteSpace=wrap;html=1;boundedLbl=1;backgroundOutline=1;darkOpacity=0.05;darkOpacity2=0.1;fontSize=18;" vertex="1" parent="1">
          <mxGeometry x="1782" y="1904.38" width="30" height="55" as="geometry" />
        </mxCell>
        <mxCell id="QorDNzhxJ9jWXFMAlyIK-52" value="" style="shape=cube;whiteSpace=wrap;html=1;boundedLbl=1;backgroundOutline=1;darkOpacity=0.05;darkOpacity2=0.1;fontSize=18;" vertex="1" parent="1">
          <mxGeometry x="1892" y="1864.38" width="30" height="95" as="geometry" />
        </mxCell>
        <mxCell id="QorDNzhxJ9jWXFMAlyIK-53" value="" style="shape=cube;whiteSpace=wrap;html=1;boundedLbl=1;backgroundOutline=1;darkOpacity=0.05;darkOpacity2=0.1;fontSize=18;" vertex="1" parent="1">
          <mxGeometry x="1862" y="1884.38" width="30" height="75" as="geometry" />
        </mxCell>
        <mxCell id="QorDNzhxJ9jWXFMAlyIK-54" value="" style="shape=cube;whiteSpace=wrap;html=1;boundedLbl=1;backgroundOutline=1;darkOpacity=0.05;darkOpacity2=0.1;fontSize=18;" vertex="1" parent="1">
          <mxGeometry x="1832" y="1904.38" width="30" height="55" as="geometry" />
        </mxCell>
        <mxCell id="QorDNzhxJ9jWXFMAlyIK-55" value="" style="shape=partialRectangle;whiteSpace=wrap;html=1;bottom=0;right=0;direction=north;" vertex="1" parent="1">
          <mxGeometry x="1742" y="1959.38" width="170" height="30" as="geometry" />
        </mxCell>
        <mxCell id="QorDNzhxJ9jWXFMAlyIK-56" value="" style="endArrow=classic;html=1;rounded=0;" edge="1" parent="1">
          <mxGeometry relative="1" as="geometry">
            <mxPoint x="1912" y="1989.38" as="sourcePoint" />
            <mxPoint x="1912" y="1959.38" as="targetPoint" />
          </mxGeometry>
        </mxCell>
        <mxCell id="QorDNzhxJ9jWXFMAlyIK-57" style="edgeStyle=orthogonalEdgeStyle;rounded=0;orthogonalLoop=1;jettySize=auto;html=1;exitX=0;exitY=0.5;exitDx=0;exitDy=0;" edge="1" parent="1" source="QorDNzhxJ9jWXFMAlyIK-55" target="QorDNzhxJ9jWXFMAlyIK-55">
          <mxGeometry relative="1" as="geometry" />
        </mxCell>
        <mxCell id="QorDNzhxJ9jWXFMAlyIK-58" value="" style="shape=partialRectangle;whiteSpace=wrap;html=1;bottom=0;right=0;direction=north;" vertex="1" parent="1">
          <mxGeometry x="1772.5" y="1959.38" width="110" height="20" as="geometry" />
        </mxCell>
        <mxCell id="QorDNzhxJ9jWXFMAlyIK-59" value="" style="endArrow=classic;html=1;rounded=0;" edge="1" parent="1">
          <mxGeometry relative="1" as="geometry">
            <mxPoint x="1882" y="1979.38" as="sourcePoint" />
            <mxPoint x="1882" y="1954.38" as="targetPoint" />
          </mxGeometry>
        </mxCell>
        <mxCell id="QorDNzhxJ9jWXFMAlyIK-60" value="" style="html=1;verticalAlign=bottom;endArrow=block;rounded=0;exitX=1;exitY=0.5;exitDx=0;exitDy=0;" edge="1" parent="1" source="QorDNzhxJ9jWXFMAlyIK-9">
          <mxGeometry width="80" relative="1" as="geometry">
            <mxPoint x="1672" y="1924.88" as="sourcePoint" />
            <mxPoint x="1722" y="1924.88" as="targetPoint" />
          </mxGeometry>
        </mxCell>
        <mxCell id="QorDNzhxJ9jWXFMAlyIK-61" value="" style="edgeStyle=orthogonalEdgeStyle;rounded=0;orthogonalLoop=1;jettySize=auto;html=1;" edge="1" parent="1">
          <mxGeometry relative="1" as="geometry">
            <mxPoint x="1822" y="2214.88" as="sourcePoint" />
            <mxPoint x="1822" y="2134.88" as="targetPoint" />
          </mxGeometry>
        </mxCell>
        <mxCell id="QorDNzhxJ9jWXFMAlyIK-62" value="" style="shape=partialRectangle;whiteSpace=wrap;html=1;bottom=0;right=0;fillColor=none;direction=north;" vertex="1" parent="1">
          <mxGeometry x="1452" y="1924.88" width="520" height="80" as="geometry" />
        </mxCell>
        <mxCell id="QorDNzhxJ9jWXFMAlyIK-63" value="" style="edgeStyle=orthogonalEdgeStyle;rounded=0;orthogonalLoop=1;jettySize=auto;html=1;" edge="1" parent="1">
          <mxGeometry relative="1" as="geometry">
            <mxPoint x="1972" y="2004.88" as="sourcePoint" />
            <mxPoint x="1972" y="1937.13" as="targetPoint" />
          </mxGeometry>
        </mxCell>
        <mxCell id="QorDNzhxJ9jWXFMAlyIK-64" value="" style="edgeStyle=orthogonalEdgeStyle;rounded=0;orthogonalLoop=1;jettySize=auto;html=1;exitX=0;exitY=0;exitDx=20;exitDy=10;exitPerimeter=0;" edge="1" parent="1" source="QorDNzhxJ9jWXFMAlyIK-16">
          <mxGeometry relative="1" as="geometry">
            <mxPoint x="1742" y="2059.63" as="sourcePoint" />
            <mxPoint x="1742" y="1991.88" as="targetPoint" />
          </mxGeometry>
        </mxCell>
        <mxCell id="QorDNzhxJ9jWXFMAlyIK-65" style="edgeStyle=orthogonalEdgeStyle;rounded=0;orthogonalLoop=1;jettySize=auto;html=1;exitX=1;exitY=0;exitDx=0;exitDy=0;" edge="1" parent="1" source="QorDNzhxJ9jWXFMAlyIK-66">
          <mxGeometry relative="1" as="geometry">
            <mxPoint x="1742" y="2064.88" as="targetPoint" />
          </mxGeometry>
        </mxCell>
        <mxCell id="QorDNzhxJ9jWXFMAlyIK-66" value="" style="shape=partialRectangle;whiteSpace=wrap;html=1;bottom=0;right=0;" vertex="1" parent="1">
          <mxGeometry x="1567" y="2064.88" width="155" height="20" as="geometry" />
        </mxCell>
        <mxCell id="QorDNzhxJ9jWXFMAlyIK-67" value="" style="edgeStyle=elbowEdgeStyle;elbow=vertical;endArrow=classic;html=1;rounded=0;exitX=0.5;exitY=0;exitDx=0;exitDy=0;" edge="1" parent="1" source="QorDNzhxJ9jWXFMAlyIK-8">
          <mxGeometry width="50" height="50" relative="1" as="geometry">
            <mxPoint x="1822" y="2124.88" as="sourcePoint" />
            <mxPoint x="1656" y="1939.88" as="targetPoint" />
          </mxGeometry>
        </mxCell>
        <mxCell id="QorDNzhxJ9jWXFMAlyIK-68" value="c" style="ellipse;whiteSpace=wrap;html=1;aspect=fixed;fontSize=18;" vertex="1" parent="1">
          <mxGeometry x="1742" y="1744.88" width="20" height="20" as="geometry" />
        </mxCell>
        <mxCell id="QorDNzhxJ9jWXFMAlyIK-69" value="" style="edgeStyle=orthogonalEdgeStyle;rounded=0;orthogonalLoop=1;jettySize=auto;html=1;strokeColor=#000000;" edge="1" parent="1" source="QorDNzhxJ9jWXFMAlyIK-70" target="QorDNzhxJ9jWXFMAlyIK-80">
          <mxGeometry relative="1" as="geometry" />
        </mxCell>
        <mxCell id="QorDNzhxJ9jWXFMAlyIK-70" value="" style="rounded=0;whiteSpace=wrap;html=1;" vertex="1" parent="1">
          <mxGeometry x="1812" y="1722.38" width="170" height="60" as="geometry" />
        </mxCell>
        <mxCell id="QorDNzhxJ9jWXFMAlyIK-71" value="" style="endArrow=classic;html=1;rounded=0;fontSize=12;entryX=0;entryY=0.5;entryDx=0;entryDy=0;exitX=1;exitY=0.5;exitDx=0;exitDy=0;" edge="1" parent="1" target="QorDNzhxJ9jWXFMAlyIK-68" source="QorDNzhxJ9jWXFMAlyIK-23">
          <mxGeometry width="50" height="50" relative="1" as="geometry">
            <mxPoint x="1532" y="1754.38" as="sourcePoint" />
            <mxPoint x="1572" y="1754.38" as="targetPoint" />
          </mxGeometry>
        </mxCell>
        <mxCell id="QorDNzhxJ9jWXFMAlyIK-72" value="&lt;font style=&quot;font-size: 14px&quot;&gt;ORB&lt;/font&gt;" style="rounded=0;whiteSpace=wrap;html=1;fontSize=18;" vertex="1" parent="1">
          <mxGeometry x="1912" y="1739.88" width="60" height="30" as="geometry" />
        </mxCell>
        <mxCell id="QorDNzhxJ9jWXFMAlyIK-73" value="" style="html=1;verticalAlign=bottom;endArrow=open;dashed=1;endSize=8;rounded=0;strokeColor=#000000;" edge="1" parent="1">
          <mxGeometry relative="1" as="geometry">
            <mxPoint x="1887" y="1754.38" as="sourcePoint" />
            <mxPoint x="1912" y="1754.88" as="targetPoint" />
          </mxGeometry>
        </mxCell>
        <mxCell id="QorDNzhxJ9jWXFMAlyIK-74" value="&lt;font style=&quot;font-size: 14px&quot;&gt;ORB&lt;/font&gt;" style="rounded=0;whiteSpace=wrap;html=1;fontSize=18;" vertex="1" parent="1">
          <mxGeometry x="1822" y="1739.88" width="60" height="30" as="geometry" />
        </mxCell>
        <mxCell id="QorDNzhxJ9jWXFMAlyIK-75" value="" style="endArrow=classic;html=1;rounded=0;fontSize=12;entryX=0;entryY=0.5;entryDx=0;entryDy=0;exitX=1;exitY=0.5;exitDx=0;exitDy=0;" edge="1" parent="1" source="QorDNzhxJ9jWXFMAlyIK-68">
          <mxGeometry width="50" height="50" relative="1" as="geometry">
            <mxPoint x="1772" y="1754.38" as="sourcePoint" />
            <mxPoint x="1812" y="1754.38" as="targetPoint" />
          </mxGeometry>
        </mxCell>
        <mxCell id="QorDNzhxJ9jWXFMAlyIK-76" style="edgeStyle=orthogonalEdgeStyle;rounded=0;orthogonalLoop=1;jettySize=auto;html=1;exitX=1;exitY=0;exitDx=0;exitDy=0;" edge="1" parent="1" source="QorDNzhxJ9jWXFMAlyIK-77">
          <mxGeometry relative="1" as="geometry">
            <mxPoint x="1912" y="1844.88" as="targetPoint" />
          </mxGeometry>
        </mxCell>
        <mxCell id="QorDNzhxJ9jWXFMAlyIK-77" value="" style="shape=partialRectangle;whiteSpace=wrap;html=1;bottom=0;right=0;" vertex="1" parent="1">
          <mxGeometry x="1732" y="1844.38" width="150" height="20.5" as="geometry" />
        </mxCell>
        <mxCell id="QorDNzhxJ9jWXFMAlyIK-78" value="" style="edgeStyle=orthogonalEdgeStyle;rounded=0;orthogonalLoop=1;jettySize=auto;html=1;exitX=0;exitY=0;exitDx=20;exitDy=10;exitPerimeter=0;" edge="1" parent="1" source="QorDNzhxJ9jWXFMAlyIK-52">
          <mxGeometry relative="1" as="geometry">
            <mxPoint x="1912" y="1864.88" as="sourcePoint" />
            <mxPoint x="1912" y="1786.38" as="targetPoint" />
          </mxGeometry>
        </mxCell>
        <mxCell id="QorDNzhxJ9jWXFMAlyIK-79" value="" style="edgeStyle=elbowEdgeStyle;elbow=vertical;endArrow=classic;html=1;rounded=0;exitX=0.5;exitY=0;exitDx=0;exitDy=0;" edge="1" parent="1" source="QorDNzhxJ9jWXFMAlyIK-41">
          <mxGeometry width="50" height="50" relative="1" as="geometry">
            <mxPoint x="1918" y="1934.88" as="sourcePoint" />
            <mxPoint x="1752" y="1764.88" as="targetPoint" />
            <Array as="points">
              <mxPoint x="1862" y="1824.88" />
            </Array>
          </mxGeometry>
        </mxCell>
        <mxCell id="QorDNzhxJ9jWXFMAlyIK-80" value="&lt;font style=&quot;font-size: 13px&quot;&gt;C&lt;br&gt;O&lt;br&gt;N&lt;br&gt;V&lt;br&gt;&lt;/font&gt;" style="rounded=0;whiteSpace=wrap;html=1;direction=east;labelPosition=center;verticalLabelPosition=middle;align=center;verticalAlign=top;spacing=0;" vertex="1" parent="1">
          <mxGeometry x="2002" y="1719.88" width="20" height="65" as="geometry" />
        </mxCell>
        <mxCell id="QorDNzhxJ9jWXFMAlyIK-81" value="" style="endArrow=classic;html=1;rounded=0;fontSize=12;exitX=1;exitY=0.5;exitDx=0;exitDy=0;" edge="1" parent="1">
          <mxGeometry width="50" height="50" relative="1" as="geometry">
            <mxPoint x="2020.75" y="1751.88" as="sourcePoint" />
            <mxPoint x="2042" y="1752.38" as="targetPoint" />
            <Array as="points">
              <mxPoint x="2032" y="1752.38" />
            </Array>
          </mxGeometry>
        </mxCell>
        <mxCell id="QorDNzhxJ9jWXFMAlyIK-82" value="" style="endArrow=classic;html=1;rounded=0;fontSize=12;exitX=1;exitY=0.5;exitDx=0;exitDy=0;" edge="1" parent="1">
          <mxGeometry width="50" height="50" relative="1" as="geometry">
            <mxPoint x="2060.75" y="1751.88" as="sourcePoint" />
            <mxPoint x="2102" y="1751.88" as="targetPoint" />
          </mxGeometry>
        </mxCell>
        <mxCell id="QorDNzhxJ9jWXFMAlyIK-83" value="" style="shape=partialRectangle;whiteSpace=wrap;html=1;bottom=0;right=0;fillColor=none;strokeColor=#000000;" vertex="1" parent="1">
          <mxGeometry x="1452" y="1675" width="600" height="80" as="geometry" />
        </mxCell>
        <mxCell id="QorDNzhxJ9jWXFMAlyIK-84" value="" style="endArrow=classic;html=1;rounded=0;strokeColor=#000000;" edge="1" parent="1">
          <mxGeometry width="50" height="50" relative="1" as="geometry">
            <mxPoint x="2052" y="1674.88" as="sourcePoint" />
            <mxPoint x="2052" y="1744.88" as="targetPoint" />
          </mxGeometry>
        </mxCell>
        <mxCell id="QorDNzhxJ9jWXFMAlyIK-85" value="" style="endArrow=none;html=1;rounded=0;fontSize=13;strokeColor=#000000;" edge="1" parent="1">
          <mxGeometry width="50" height="50" relative="1" as="geometry">
            <mxPoint x="2042" y="1752.13" as="sourcePoint" />
            <mxPoint x="2062" y="1751.88" as="targetPoint" />
          </mxGeometry>
        </mxCell>
        <mxCell id="QorDNzhxJ9jWXFMAlyIK-86" value="" style="endArrow=none;html=1;rounded=0;fontSize=13;strokeColor=#000000;" edge="1" parent="1">
          <mxGeometry width="50" height="50" relative="1" as="geometry">
            <mxPoint x="2052" y="1761.7600000000002" as="sourcePoint" />
            <mxPoint x="2052" y="1731.7600000000002" as="targetPoint" />
          </mxGeometry>
        </mxCell>
        <mxCell id="QorDNzhxJ9jWXFMAlyIK-88" value="Stage3" style="text;html=1;align=center;verticalAlign=middle;resizable=0;points=[];autosize=1;strokeColor=none;fillColor=none;fontSize=13;" vertex="1" parent="1">
          <mxGeometry x="1352" y="1684.88" width="60" height="20" as="geometry" />
        </mxCell>
        <mxCell id="QorDNzhxJ9jWXFMAlyIK-89" value="Stage2" style="text;html=1;align=center;verticalAlign=middle;resizable=0;points=[];autosize=1;strokeColor=none;fillColor=none;fontSize=13;" vertex="1" parent="1">
          <mxGeometry x="1352" y="1854.88" width="60" height="20" as="geometry" />
        </mxCell>
        <mxCell id="QorDNzhxJ9jWXFMAlyIK-90" value="Stage1" style="text;html=1;align=center;verticalAlign=middle;resizable=0;points=[];autosize=1;fontSize=13;" vertex="1" parent="1">
          <mxGeometry x="1352" y="2054.88" width="60" height="20" as="geometry" />
        </mxCell>
        <mxCell id="QorDNzhxJ9jWXFMAlyIK-91" value="&lt;span style=&quot;color: rgb(0 , 0 , 0) ; font-family: &amp;#34;helvetica&amp;#34; ; font-size: 13px ; font-style: normal ; font-weight: 400 ; letter-spacing: normal ; text-align: center ; text-indent: 0px ; text-transform: none ; word-spacing: 0px ; background-color: rgb(248 , 249 , 250) ; display: inline ; float: none&quot;&gt;&amp;nbsp; &amp;nbsp; Input&lt;/span&gt;" style="text;whiteSpace=wrap;html=1;fontSize=13;" vertex="1" parent="1">
          <mxGeometry x="1347" y="2174.88" width="70" height="30" as="geometry" />
        </mxCell>
        <mxCell id="QorDNzhxJ9jWXFMAlyIK-92" value="&lt;div style=&quot;text-align: center&quot;&gt;&lt;span&gt;&lt;font face=&quot;helvetica&quot;&gt;&amp;nbsp;Output(a)&lt;/font&gt;&lt;/span&gt;&lt;/div&gt;" style="text;whiteSpace=wrap;html=1;fontSize=13;" vertex="1" parent="1">
          <mxGeometry x="1887" y="2169.88" width="70" height="30" as="geometry" />
        </mxCell>
        <mxCell id="QorDNzhxJ9jWXFMAlyIK-93" value="&lt;span style=&quot;color: rgb(0 , 0 , 0) ; font-family: &amp;#34;helvetica&amp;#34; ; font-size: 13px ; font-style: normal ; font-weight: 400 ; letter-spacing: normal ; text-align: center ; text-indent: 0px ; text-transform: none ; word-spacing: 0px ; background-color: rgb(248 , 249 , 250) ; display: inline ; float: none&quot;&gt;&amp;nbsp; Output(b)&lt;/span&gt;" style="text;whiteSpace=wrap;html=1;fontSize=13;" vertex="1" parent="1">
          <mxGeometry x="2037" y="1974.88" width="70" height="30" as="geometry" />
        </mxCell>
        <mxCell id="QorDNzhxJ9jWXFMAlyIK-94" value="&lt;div style=&quot;text-align: center&quot;&gt;&lt;span&gt;&lt;font face=&quot;helvetica&quot;&gt;&amp;nbsp;Output(c)&lt;/font&gt;&lt;/span&gt;&lt;/div&gt;" style="text;whiteSpace=wrap;html=1;fontSize=13;" vertex="1" parent="1">
          <mxGeometry x="2117" y="1804.88" width="70" height="30" as="geometry" />
        </mxCell>
        <mxCell id="QorDNzhxJ9jWXFMAlyIK-95" value="&lt;span style=&quot;color: rgb(0 , 0 , 0) ; font-family: &amp;#34;helvetica&amp;#34; ; font-size: 13px ; font-style: normal ; font-weight: 400 ; letter-spacing: normal ; text-align: center ; text-indent: 0px ; text-transform: none ; word-spacing: 0px ; background-color: rgb(248 , 249 , 250) ; display: inline ; float: none&quot;&gt;&amp;nbsp; &amp;nbsp; Input&lt;/span&gt;" style="text;whiteSpace=wrap;html=1;fontSize=13;" vertex="1" parent="1">
          <mxGeometry x="1347" y="1974.88" width="70" height="30" as="geometry" />
        </mxCell>
        <mxCell id="QorDNzhxJ9jWXFMAlyIK-96" value="&lt;span style=&quot;color: rgb(0 , 0 , 0) ; font-family: &amp;#34;helvetica&amp;#34; ; font-size: 13px ; font-style: normal ; font-weight: 400 ; letter-spacing: normal ; text-align: center ; text-indent: 0px ; text-transform: none ; word-spacing: 0px ; background-color: rgb(248 , 249 , 250) ; display: inline ; float: none&quot;&gt;&amp;nbsp; &amp;nbsp; Input&lt;/span&gt;" style="text;whiteSpace=wrap;html=1;fontSize=13;" vertex="1" parent="1">
          <mxGeometry x="1347" y="1804.88" width="70" height="30" as="geometry" />
        </mxCell>
        <mxCell id="QorDNzhxJ9jWXFMAlyIK-97" value="&lt;font style=&quot;font-size: 14px&quot;&gt;u-net&lt;/font&gt;" style="text;html=1;align=center;verticalAlign=middle;resizable=0;points=[];autosize=1;fontSize=13;" vertex="1" parent="1">
          <mxGeometry x="1625" y="2097" width="42" height="21" as="geometry" />
        </mxCell>
        <mxCell id="QorDNzhxJ9jWXFMAlyIK-98" value="&lt;font style=&quot;font-size: 14px&quot;&gt;u-net&lt;/font&gt;" style="text;html=1;align=center;verticalAlign=middle;resizable=0;points=[];autosize=1;strokeColor=none;fillColor=none;fontSize=13;" vertex="1" parent="1">
          <mxGeometry x="1801" y="1879" width="42" height="21" as="geometry" />
        </mxCell>
        <mxCell id="QorDNzhxJ9jWXFMAlyIK-102" value="&lt;font style=&quot;font-size: 14px&quot;&gt;ORS&lt;/font&gt;" style="text;html=1;align=center;verticalAlign=middle;resizable=0;points=[];autosize=1;strokeColor=none;fillColor=none;" vertex="1" parent="1">
          <mxGeometry x="1880" y="1695.88" width="40" height="19" as="geometry" />
        </mxCell>
      </root>
    </mxGraphModel>
  </diagram>
</mxfile>
